<svg width="177" height="134" viewBox="0 0 177 134" fill="none" xmlns="http://www.w3.org/2000/svg">
<g filter="url(#filter0_dd)">
<path d="M39.3711 89.1602H20.6406V96.7344H38.0039V104.609H20.6406V122H10.1953V81.2852H39.3711V89.1602ZM55.9141 122H46.0703V91.293H55.9141V122ZM56.1875 86.918H45.7969V79.4531H56.1875V86.918ZM96.0547 122H86.1562V106.77C86.1562 105.53 86.0924 104.299 85.9648 103.078C85.8372 101.839 85.6185 100.927 85.3086 100.344C84.944 99.6693 84.4062 99.1771 83.6953 98.8672C83.0026 98.5573 82.0273 98.4023 80.7695 98.4023C79.8763 98.4023 78.9648 98.5482 78.0352 98.8398C77.1237 99.1315 76.1302 99.5964 75.0547 100.234V122H65.2109V91.293H75.0547V94.6836C76.8047 93.3164 78.4818 92.2682 80.0859 91.5391C81.7083 90.8099 83.5039 90.4453 85.4727 90.4453C88.7904 90.4453 91.3789 91.4115 93.2383 93.3438C95.1159 95.276 96.0547 98.1654 96.0547 102.012V122ZM134.992 122H125.148V118.801C123.453 120.186 121.867 121.207 120.391 121.863C118.914 122.52 117.21 122.848 115.277 122.848C111.54 122.848 108.551 121.408 106.309 118.527C104.066 115.647 102.945 111.764 102.945 106.879C102.945 104.272 103.319 101.966 104.066 99.9609C104.832 97.9375 105.871 96.2057 107.184 94.7656C108.423 93.3984 109.927 92.3411 111.695 91.5938C113.464 90.8281 115.232 90.4453 117 90.4453C118.841 90.4453 120.345 90.6458 121.512 91.0469C122.697 91.4297 123.909 91.9219 125.148 92.5234V79.4531H134.992V122ZM125.148 113.523V98.457C124.456 98.1654 123.727 97.9557 122.961 97.8281C122.195 97.7005 121.493 97.6367 120.855 97.6367C118.267 97.6367 116.326 98.4479 115.031 100.07C113.737 101.674 113.09 103.908 113.09 106.77C113.09 109.777 113.609 111.965 114.648 113.332C115.688 114.681 117.355 115.355 119.652 115.355C120.546 115.355 121.493 115.191 122.496 114.863C123.499 114.517 124.383 114.07 125.148 113.523ZM166.547 100.672H165.672C165.253 100.526 164.578 100.417 163.648 100.344C162.719 100.271 161.944 100.234 161.324 100.234C159.921 100.234 158.681 100.326 157.605 100.508C156.53 100.69 155.372 101 154.133 101.438V122H144.289V91.293H154.133V95.8047C156.302 93.9453 158.189 92.7148 159.793 92.1133C161.397 91.4935 162.874 91.1836 164.223 91.1836C164.569 91.1836 164.961 91.1927 165.398 91.2109C165.836 91.2292 166.219 91.2565 166.547 91.293V100.672Z" fill="#1A1A1A"/>
<path d="M39.3711 89.1602V90.6602C40.1995 90.6602 40.8711 89.9886 40.8711 89.1602H39.3711ZM20.6406 89.1602V87.6602C19.8122 87.6602 19.1406 88.3317 19.1406 89.1602H20.6406ZM20.6406 96.7344H19.1406C19.1406 97.5628 19.8122 98.2344 20.6406 98.2344V96.7344ZM38.0039 96.7344H39.5039C39.5039 95.9059 38.8323 95.2344 38.0039 95.2344V96.7344ZM38.0039 104.609V106.109C38.8323 106.109 39.5039 105.438 39.5039 104.609H38.0039ZM20.6406 104.609V103.109C19.8122 103.109 19.1406 103.781 19.1406 104.609H20.6406ZM20.6406 122V123.5C21.4691 123.5 22.1406 122.828 22.1406 122H20.6406ZM10.1953 122H8.69531C8.69531 122.828 9.36689 123.5 10.1953 123.5V122ZM10.1953 81.2852V79.7852C9.36689 79.7852 8.69531 80.4567 8.69531 81.2852H10.1953ZM39.3711 81.2852H40.8711C40.8711 80.4567 40.1995 79.7852 39.3711 79.7852V81.2852ZM39.3711 87.6602H20.6406V90.6602H39.3711V87.6602ZM19.1406 89.1602V96.7344H22.1406V89.1602H19.1406ZM20.6406 98.2344H38.0039V95.2344H20.6406V98.2344ZM36.5039 96.7344V104.609H39.5039V96.7344H36.5039ZM38.0039 103.109H20.6406V106.109H38.0039V103.109ZM19.1406 104.609V122H22.1406V104.609H19.1406ZM20.6406 120.5H10.1953V123.5H20.6406V120.5ZM11.6953 122V81.2852H8.69531V122H11.6953ZM10.1953 82.7852H39.3711V79.7852H10.1953V82.7852ZM37.8711 81.2852V89.1602H40.8711V81.2852H37.8711ZM55.9141 122V123.5C56.7425 123.5 57.4141 122.828 57.4141 122H55.9141ZM46.0703 122H44.5703C44.5703 122.828 45.2419 123.5 46.0703 123.5V122ZM46.0703 91.293V89.793C45.2419 89.793 44.5703 90.4645 44.5703 91.293H46.0703ZM55.9141 91.293H57.4141C57.4141 90.4645 56.7425 89.793 55.9141 89.793V91.293ZM56.1875 86.918V88.418C57.0159 88.418 57.6875 87.7464 57.6875 86.918H56.1875ZM45.7969 86.918H44.2969C44.2969 87.7464 44.9684 88.418 45.7969 88.418V86.918ZM45.7969 79.4531V77.9531C44.9684 77.9531 44.2969 78.6247 44.2969 79.4531H45.7969ZM56.1875 79.4531H57.6875C57.6875 78.6247 57.0159 77.9531 56.1875 77.9531V79.4531ZM55.9141 120.5H46.0703V123.5H55.9141V120.5ZM47.5703 122V91.293H44.5703V122H47.5703ZM46.0703 92.793H55.9141V89.793H46.0703V92.793ZM54.4141 91.293V122H57.4141V91.293H54.4141ZM56.1875 85.418H45.7969V88.418H56.1875V85.418ZM47.2969 86.918V79.4531H44.2969V86.918H47.2969ZM45.7969 80.9531H56.1875V77.9531H45.7969V80.9531ZM54.6875 79.4531V86.918H57.6875V79.4531H54.6875ZM96.0547 122V123.5C96.8831 123.5 97.5547 122.828 97.5547 122H96.0547ZM86.1562 122H84.6562C84.6562 122.828 85.3278 123.5 86.1562 123.5V122ZM85.9648 103.078L84.4727 103.232L84.473 103.234L85.9648 103.078ZM85.3086 100.344L86.6333 99.64L86.6282 99.6305L85.3086 100.344ZM83.6953 98.8672L83.0828 100.236C83.0871 100.238 83.0915 100.24 83.0959 100.242L83.6953 98.8672ZM78.0352 98.8398L77.5861 97.4086L77.578 97.4112L78.0352 98.8398ZM75.0547 100.234L74.2894 98.9443C73.8339 99.2145 73.5547 99.7048 73.5547 100.234H75.0547ZM75.0547 122V123.5C75.8831 123.5 76.5547 122.828 76.5547 122H75.0547ZM65.2109 122H63.7109C63.7109 122.828 64.3825 123.5 65.2109 123.5V122ZM65.2109 91.293V89.793C64.3825 89.793 63.7109 90.4645 63.7109 91.293H65.2109ZM75.0547 91.293H76.5547C76.5547 90.4645 75.8831 89.793 75.0547 89.793V91.293ZM75.0547 94.6836H73.5547C73.5547 95.2571 73.8817 95.7804 74.3971 96.0318C74.9126 96.2832 75.5262 96.2187 75.9782 95.8656L75.0547 94.6836ZM80.0859 91.5391L79.471 90.1709L79.4652 90.1735L80.0859 91.5391ZM93.2383 93.3438L92.1574 94.3838L92.1625 94.3891L93.2383 93.3438ZM96.0547 120.5H86.1562V123.5H96.0547V120.5ZM87.6562 122V106.77H84.6562V122H87.6562ZM87.6562 106.77C87.6562 105.478 87.5898 104.196 87.4567 102.922L84.473 103.234C84.5951 104.403 84.6562 105.582 84.6562 106.77H87.6562ZM87.457 102.925C87.324 101.632 87.0824 100.485 86.6333 99.64L83.9839 101.047C84.1546 101.369 84.3505 102.045 84.4727 103.232L87.457 102.925ZM86.6282 99.6305C86.1022 98.6575 85.309 97.9343 84.2947 97.4921L83.0959 100.242C83.5035 100.42 83.7858 100.681 83.989 101.057L86.6282 99.6305ZM84.3079 97.498C83.3362 97.0632 82.1173 96.9023 80.7695 96.9023V99.9023C81.9374 99.9023 82.6691 100.051 83.0828 100.236L84.3079 97.498ZM80.7695 96.9023C79.7108 96.9023 78.648 97.0755 77.5861 97.4086L78.4842 100.271C79.2817 100.021 80.0418 99.9023 80.7695 99.9023V96.9023ZM77.578 97.4112C76.532 97.7459 75.4343 98.2651 74.2894 98.9443L75.82 101.524C76.8262 100.928 77.7154 100.517 78.4923 100.268L77.578 97.4112ZM73.5547 100.234V122H76.5547V100.234H73.5547ZM75.0547 120.5H65.2109V123.5H75.0547V120.5ZM66.7109 122V91.293H63.7109V122H66.7109ZM65.2109 92.793H75.0547V89.793H65.2109V92.793ZM73.5547 91.293V94.6836H76.5547V91.293H73.5547ZM75.9782 95.8656C77.6578 94.5534 79.2339 93.574 80.7066 92.9046L79.4652 90.1735C77.7296 90.9624 75.9516 92.0794 74.1312 93.5016L75.9782 95.8656ZM80.7008 92.9072C82.1101 92.2738 83.6931 91.9453 85.4727 91.9453V88.9453C83.3147 88.9453 81.3065 89.3459 79.471 90.1709L80.7008 92.9072ZM85.4727 91.9453C88.4857 91.9453 90.6452 92.8122 92.1574 94.3838L94.3191 92.3037C92.1127 90.0107 89.095 88.9453 85.4727 88.9453V91.9453ZM92.1625 94.3891C93.6703 95.9407 94.5547 98.3883 94.5547 102.012H97.5547C97.5547 97.9424 96.5615 94.6113 94.3141 92.2984L92.1625 94.3891ZM94.5547 102.012V122H97.5547V102.012H94.5547ZM134.992 122V123.5C135.821 123.5 136.492 122.828 136.492 122H134.992ZM125.148 122H123.648C123.648 122.828 124.32 123.5 125.148 123.5V122ZM125.148 118.801H126.648C126.648 118.221 126.315 117.694 125.791 117.445C125.268 117.197 124.648 117.273 124.199 117.639L125.148 118.801ZM104.066 99.9609L102.663 99.4301L102.661 99.4371L104.066 99.9609ZM107.184 94.7656L108.292 95.776L108.295 95.7732L107.184 94.7656ZM111.695 91.5938L112.279 92.9754L112.291 92.9703L111.695 91.5938ZM121.512 91.0469L121.024 92.4654C121.033 92.4684 121.042 92.4714 121.051 92.4742L121.512 91.0469ZM125.148 92.5234L124.494 93.8729C124.958 94.0985 125.507 94.069 125.945 93.7947C126.382 93.5205 126.648 93.0401 126.648 92.5234H125.148ZM125.148 79.4531V77.9531C124.32 77.9531 123.648 78.6247 123.648 79.4531H125.148ZM134.992 79.4531H136.492C136.492 78.6247 135.821 77.9531 134.992 77.9531V79.4531ZM125.148 113.523L126.02 114.744C126.414 114.462 126.648 114.008 126.648 113.523H125.148ZM125.148 98.457H126.648C126.648 97.8535 126.287 97.3088 125.731 97.0746L125.148 98.457ZM115.031 100.07L116.199 101.012L116.204 101.006L115.031 100.07ZM114.648 113.332L113.454 114.24L113.46 114.247L114.648 113.332ZM122.496 114.863L122.963 116.289C122.97 116.286 122.978 116.284 122.986 116.281L122.496 114.863ZM134.992 120.5H125.148V123.5H134.992V120.5ZM126.648 122V118.801H123.648V122H126.648ZM124.199 117.639C122.573 118.968 121.101 119.906 119.781 120.493L121 123.234C122.633 122.508 124.333 121.404 126.098 119.962L124.199 117.639ZM119.781 120.493C118.53 121.049 117.04 121.348 115.277 121.348V124.348C117.379 124.348 119.298 123.991 121 123.234L119.781 120.493ZM115.277 121.348C111.99 121.348 109.442 120.111 107.492 117.606L105.125 119.449C107.659 122.704 111.091 124.348 115.277 124.348V121.348ZM107.492 117.606C105.515 115.066 104.445 111.543 104.445 106.879H101.445C101.445 111.986 102.618 116.228 105.125 119.449L107.492 117.606ZM104.445 106.879C104.445 104.413 104.799 102.29 105.472 100.485L102.661 99.4371C101.839 101.642 101.445 104.131 101.445 106.879H104.445ZM105.469 100.492C106.175 98.6258 107.121 97.0616 108.292 95.776L106.075 93.7552C104.622 95.3498 103.489 97.2492 102.663 99.4301L105.469 100.492ZM108.295 95.7732C109.382 94.5741 110.704 93.6414 112.279 92.9754L111.111 90.2121C109.151 91.0409 107.464 92.2228 106.072 93.7581L108.295 95.7732ZM112.291 92.9703C113.888 92.2787 115.455 91.9453 117 91.9453V88.9453C115.009 88.9453 113.039 89.3775 111.099 90.2172L112.291 92.9703ZM117 91.9453C118.749 91.9453 120.071 92.1379 121.024 92.4654L121.999 89.6283C120.619 89.1538 118.934 88.9453 117 88.9453V91.9453ZM121.051 92.4742C122.163 92.8335 123.31 93.2986 124.494 93.8729L125.803 91.174C124.508 90.5451 123.231 90.0259 121.973 89.6195L121.051 92.4742ZM126.648 92.5234V79.4531H123.648V92.5234H126.648ZM125.148 80.9531H134.992V77.9531H125.148V80.9531ZM133.492 79.4531V122H136.492V79.4531H133.492ZM126.648 113.523V98.457H123.648V113.523H126.648ZM125.731 97.0746C124.927 96.7361 124.085 96.4947 123.208 96.3485L122.714 99.3077C123.369 99.4167 123.985 99.5946 124.566 99.8395L125.731 97.0746ZM123.208 96.3485C122.377 96.2101 121.592 96.1367 120.855 96.1367V99.1367C121.395 99.1367 122.013 99.1909 122.714 99.3077L123.208 96.3485ZM120.855 96.1367C117.934 96.1367 115.507 97.069 113.859 99.1349L116.204 101.006C117.144 99.8269 118.599 99.1367 120.855 99.1367V96.1367ZM113.864 99.1284C112.284 101.086 111.59 103.696 111.59 106.77H114.59C114.59 104.119 115.19 102.263 116.199 101.012L113.864 99.1284ZM111.59 106.77C111.59 109.885 112.116 112.478 113.454 114.24L115.843 112.424C115.103 111.451 114.59 109.669 114.59 106.77H111.59ZM113.46 114.247C114.875 116.084 117.065 116.855 119.652 116.855V113.855C117.646 113.855 116.5 113.278 115.837 112.417L113.46 114.247ZM119.652 116.855C120.73 116.855 121.836 116.658 122.963 116.289L122.03 113.438C121.151 113.725 120.361 113.855 119.652 113.855V116.855ZM122.986 116.281C124.108 115.894 125.124 115.385 126.02 114.744L124.277 112.303C123.642 112.756 122.89 113.14 122.006 113.445L122.986 116.281ZM166.547 100.672V102.172C167.375 102.172 168.047 101.5 168.047 100.672H166.547ZM165.672 100.672L165.179 102.089C165.338 102.144 165.504 102.172 165.672 102.172V100.672ZM154.133 101.438L153.634 100.023C153.034 100.235 152.633 100.802 152.633 101.438H154.133ZM154.133 122V123.5C154.961 123.5 155.633 122.828 155.633 122H154.133ZM144.289 122H142.789C142.789 122.828 143.461 123.5 144.289 123.5V122ZM144.289 91.293V89.793C143.461 89.793 142.789 90.4645 142.789 91.293H144.289ZM154.133 91.293H155.633C155.633 90.4645 154.961 89.793 154.133 89.793V91.293ZM154.133 95.8047H152.633C152.633 96.3905 152.974 96.9227 153.506 97.1675C154.038 97.4122 154.664 97.3248 155.109 96.9436L154.133 95.8047ZM159.793 92.1133L160.32 93.5178C160.324 93.516 160.329 93.5143 160.334 93.5125L159.793 92.1133ZM166.547 91.293H168.047C168.047 90.5286 167.472 89.8865 166.713 89.8021L166.547 91.293ZM166.547 99.1719H165.672V102.172H166.547V99.1719ZM166.165 99.2551C165.552 99.0422 164.715 98.9228 163.766 98.8483L163.531 101.839C164.441 101.911 164.953 102.01 165.179 102.089L166.165 99.2551ZM163.766 98.8483C162.814 98.7737 161.997 98.7344 161.324 98.7344V101.734C161.891 101.734 162.623 101.768 163.531 101.839L163.766 98.8483ZM161.324 98.7344C159.859 98.7344 158.533 98.8293 157.355 99.0289L157.856 101.987C158.829 101.822 159.982 101.734 161.324 101.734V98.7344ZM157.355 99.0289C156.18 99.2281 154.938 99.5626 153.634 100.023L154.632 102.852C155.807 102.437 156.88 102.152 157.856 101.987L157.355 99.0289ZM152.633 101.438V122H155.633V101.438H152.633ZM154.133 120.5H144.289V123.5H154.133V120.5ZM145.789 122V91.293H142.789V122H145.789ZM144.289 92.793H154.133V89.793H144.289V92.793ZM152.633 91.293V95.8047H155.633V91.293H152.633ZM155.109 96.9436C157.222 95.1326 158.953 94.0302 160.32 93.5178L159.266 90.7088C157.424 91.3995 155.382 92.758 153.157 94.6658L155.109 96.9436ZM160.334 93.5125C161.811 92.9418 163.102 92.6836 164.223 92.6836V89.6836C162.646 89.6836 160.984 90.0452 159.252 90.7141L160.334 93.5125ZM164.223 92.6836C164.544 92.6836 164.914 92.6921 165.336 92.7096L165.461 89.7122C165.008 89.6934 164.594 89.6836 164.223 89.6836V92.6836ZM165.336 92.7096C165.749 92.7269 166.096 92.7521 166.381 92.7838L166.713 89.8021C166.341 89.7609 165.923 89.7315 165.461 89.7122L165.336 92.7096ZM165.047 91.293V100.672H168.047V91.293H165.047Z" fill="#1A1A1A"/>
</g>
<g filter="url(#filter1_dd)">
<path d="M44.3438 26.4688H29.8125V64H17.8125V26.4688H3.28125V17.4688H44.3438V26.4688ZM76.375 39.625H75.375C74.8958 39.4583 74.125 39.3333 73.0625 39.25C72 39.1667 71.1146 39.125 70.4062 39.125C68.8021 39.125 67.3854 39.2292 66.1562 39.4375C64.9271 39.6458 63.6042 40 62.1875 40.5V64H50.9375V28.9062H62.1875V34.0625C64.6667 31.9375 66.8229 30.5312 68.6562 29.8438C70.4896 29.1354 72.1771 28.7812 73.7188 28.7812C74.1146 28.7812 74.5625 28.7917 75.0625 28.8125C75.5625 28.8333 76 28.8646 76.375 28.9062V39.625ZM137.75 64H126.5V15.375H137.75V64ZM159.625 64H148.375V15.375H159.625V64Z" fill="#1A1A1A"/>
<path d="M44.3438 26.4688V27.9688C45.1722 27.9688 45.8438 27.2972 45.8438 26.4688H44.3438ZM29.8125 26.4688V24.9688C28.9841 24.9688 28.3125 25.6403 28.3125 26.4688H29.8125ZM29.8125 64V65.5C30.6409 65.5 31.3125 64.8284 31.3125 64H29.8125ZM17.8125 64H16.3125C16.3125 64.8284 16.9841 65.5 17.8125 65.5V64ZM17.8125 26.4688H19.3125C19.3125 25.6403 18.6409 24.9688 17.8125 24.9688V26.4688ZM3.28125 26.4688H1.78125C1.78125 27.2972 2.45282 27.9688 3.28125 27.9688L3.28125 26.4688ZM3.28125 17.4688V15.9688C2.45282 15.9688 1.78125 16.6403 1.78125 17.4688H3.28125ZM44.3438 17.4688H45.8438C45.8438 16.6403 45.1722 15.9688 44.3438 15.9688V17.4688ZM44.3438 24.9688H29.8125V27.9688H44.3438V24.9688ZM28.3125 26.4688V64H31.3125V26.4688H28.3125ZM29.8125 62.5H17.8125V65.5H29.8125V62.5ZM19.3125 64V26.4688H16.3125V64H19.3125ZM17.8125 24.9688H3.28125V27.9688H17.8125V24.9688ZM4.78125 26.4688V17.4688H1.78125V26.4688H4.78125ZM3.28125 18.9688H44.3438V15.9688H3.28125V18.9688ZM42.8438 17.4688V26.4688H45.8438V17.4688H42.8438ZM76.375 39.625V41.125C77.2034 41.125 77.875 40.4534 77.875 39.625H76.375ZM75.375 39.625L74.8822 41.0417C75.0407 41.0969 75.2072 41.125 75.375 41.125V39.625ZM62.1875 40.5L61.6883 39.0855C61.0886 39.2972 60.6875 39.864 60.6875 40.5H62.1875ZM62.1875 64V65.5C63.0159 65.5 63.6875 64.8284 63.6875 64H62.1875ZM50.9375 64H49.4375C49.4375 64.8284 50.1091 65.5 50.9375 65.5V64ZM50.9375 28.9062V27.4062C50.1091 27.4062 49.4375 28.0778 49.4375 28.9062H50.9375ZM62.1875 28.9062H63.6875C63.6875 28.0778 63.0159 27.4062 62.1875 27.4062V28.9062ZM62.1875 34.0625H60.6875C60.6875 34.6483 61.0285 35.1805 61.5607 35.4253C62.0929 35.67 62.7189 35.5826 63.1637 35.2014L62.1875 34.0625ZM68.6562 29.8438L69.1829 31.2482C69.1876 31.2465 69.1922 31.2447 69.1968 31.2429L68.6562 29.8438ZM76.375 28.9062H77.875C77.875 28.1419 77.3003 27.4998 76.5406 27.4154L76.375 28.9062ZM76.375 38.125H75.375V41.125H76.375V38.125ZM75.8678 38.2083C75.1957 37.9745 74.2621 37.8395 73.1798 37.7546L72.9452 40.7454C73.9879 40.8272 74.596 40.9422 74.8822 41.0417L75.8678 38.2083ZM73.1798 37.7546C72.0956 37.6696 71.1679 37.625 70.4062 37.625V40.625C71.0612 40.625 71.9044 40.6638 72.9452 40.7454L73.1798 37.7546ZM70.4062 37.625C68.7406 37.625 67.2371 37.7329 65.9056 37.9586L66.4069 40.9164C67.5337 40.7254 68.8636 40.625 70.4062 40.625V37.625ZM65.9056 37.9586C64.5768 38.1838 63.17 38.5626 61.6883 39.0855L62.6867 41.9145C64.0384 41.4374 65.2774 41.1079 66.4069 40.9164L65.9056 37.9586ZM60.6875 40.5V64H63.6875V40.5H60.6875ZM62.1875 62.5H50.9375V65.5H62.1875V62.5ZM52.4375 64V28.9062H49.4375V64H52.4375ZM50.9375 30.4062H62.1875V27.4062H50.9375V30.4062ZM60.6875 28.9062V34.0625H63.6875V28.9062H60.6875ZM63.1637 35.2014C65.5864 33.1248 67.5873 31.8466 69.1829 31.2482L68.1296 28.4393C66.0585 29.2159 63.747 30.7502 61.2113 32.9236L63.1637 35.2014ZM69.1968 31.2429C70.9031 30.5837 72.405 30.2812 73.7188 30.2812V27.2812C71.9492 27.2812 70.0761 27.6871 68.1157 28.4446L69.1968 31.2429ZM73.7188 30.2812C74.0892 30.2812 74.5157 30.291 75.0001 30.3112L75.1249 27.3138C74.6093 27.2923 74.14 27.2812 73.7188 27.2812V30.2812ZM75.0001 30.3112C75.4759 30.331 75.8776 30.3602 76.2094 30.3971L76.5406 27.4154C76.1224 27.369 75.6491 27.3356 75.1249 27.3138L75.0001 30.3112ZM74.875 28.9062V39.625H77.875V28.9062H74.875ZM137.75 64V65.5C138.578 65.5 139.25 64.8284 139.25 64H137.75ZM126.5 64H125C125 64.8284 125.672 65.5 126.5 65.5V64ZM126.5 15.375V13.875C125.672 13.875 125 14.5466 125 15.375H126.5ZM137.75 15.375H139.25C139.25 14.5466 138.578 13.875 137.75 13.875V15.375ZM137.75 62.5H126.5V65.5H137.75V62.5ZM128 64V15.375H125V64H128ZM126.5 16.875H137.75V13.875H126.5V16.875ZM136.25 15.375V64H139.25V15.375H136.25ZM159.625 64V65.5C160.453 65.5 161.125 64.8284 161.125 64H159.625ZM148.375 64H146.875C146.875 64.8284 147.547 65.5 148.375 65.5V64ZM148.375 15.375V13.875C147.547 13.875 146.875 14.5466 146.875 15.375H148.375ZM159.625 15.375H161.125C161.125 14.5466 160.453 13.875 159.625 13.875V15.375ZM159.625 62.5H148.375V65.5H159.625V62.5ZM149.875 64V15.375H146.875V64H149.875ZM148.375 16.875H159.625V13.875H148.375V16.875ZM158.125 15.375V64H161.125V15.375H158.125Z" fill="#1A1A1A"/>
</g>
<g clip-path="url(#clip0)">
<path d="M77.8191 75.5633L87.4523 65.9352C96.598 72.9379 109.725 72.2777 118.099 63.909C127.204 54.7988 127.204 40.0316 118.099 30.9215C108.984 21.8164 94.2164 21.8164 85.1062 30.9215C76.7426 39.2902 76.0824 52.4172 83.0801 61.5629L73.4418 71.191L77.8191 75.5633V75.5633Z" fill="#78A3AD"/>
<path d="M88.5695 60.4457C81.3789 53.2449 81.3789 41.5805 88.5695 34.3898C95.7703 27.1992 107.425 27.1941 114.62 34.3898C121.811 41.5805 121.811 53.2449 114.62 60.4457C107.43 67.6363 95.7703 67.6363 88.5695 60.4457V60.4457Z" fill="white"/>
<path d="M62.3816 86.598C64.616 88.8426 67.5207 89.5738 68.8563 88.2383L81.8207 75.2434C84.9691 72.0949 77.0117 63.8328 73.7109 67.1336L60.7465 80.1285C59.4059 81.4641 60.1422 84.3637 62.3816 86.598Z" fill="#F79329"/>
<path d="M68.516 87.8676C68.4246 86.8316 67.7492 85.6078 67.3125 84.9172C66.0074 82.8504 64.3672 81.1391 61.9195 80.4891C59.4313 79.8238 59.1824 81.6976 59.7766 83.5969C60.4926 85.8871 61.9195 87.6086 64.0219 88.8121C64.5145 89.0965 65.1695 89.4976 65.7383 89.584C67.1297 89.782 68.6633 89.6043 68.516 87.8676V87.8676Z" fill="#855C52"/>
</g>
<path d="M102 27C90.972 27 82 35.972 82 47C82 58.0284 90.972 67 102 67C113.028 67 122 58.028 122 47C122 35.972 113.028 27 102 27ZM102 65.3818C91.8641 65.3818 83.6182 57.1359 83.6182 47C83.6182 36.8641 91.8641 28.6182 102 28.6182C112.136 28.6182 120.382 36.8641 120.382 47C120.382 57.1359 112.136 65.3818 102 65.3818Z" fill="#9BC53D"/>
<path d="M99.3455 49.6943C99.284 50.2085 99.6303 50.6988 100.174 50.8424C100.55 50.9411 100.851 51.2174 100.979 51.5815C101.098 51.9169 101.291 52.2308 101.556 52.5144C101.669 52.6361 101.831 52.7061 102 52.7061C102.169 52.7061 102.331 52.6361 102.445 52.5144C102.708 52.2312 102.902 51.9169 103.021 51.5815C103.149 51.2174 103.45 50.9411 103.849 50.8359C104.37 50.6988 104.717 50.2081 104.654 49.6943C104.515 48.5324 103.475 48.2072 102.945 48.1979C102.835 48.2059 102.741 48.2848 102.739 48.3965C102.737 48.5077 102.826 48.6004 102.938 48.6024C102.986 48.6032 104.12 48.6364 104.253 49.7424C104.29 50.0568 104.073 50.3585 103.723 50.4512C103.217 50.5839 102.812 50.9561 102.638 51.4472C102.539 51.7296 102.374 51.9957 102.148 52.2385C102.074 52.3182 101.925 52.3182 101.851 52.2385C101.625 51.9957 101.46 51.7296 101.361 51.4472C101.187 50.9561 100.782 50.5839 100.254 50.4447C99.9272 50.3585 99.7092 50.0568 99.7472 49.7424C99.8791 48.6433 101.014 48.6036 101.062 48.6024C101.174 48.5996 101.263 48.5073 101.26 48.3957C101.258 48.2844 101.161 48.1966 101.055 48.1979C100.525 48.2072 99.4854 48.5324 99.3455 49.6943Z" fill="#9BC53D"/>
<path d="M104.638 59.8128C104.102 60.3484 103.09 60.6381 102.534 60.7631C102.18 60.8428 101.82 60.8432 101.465 60.7627C100.909 60.6381 99.8971 60.3488 99.3615 59.8128C99.2826 59.7339 99.1543 59.7339 99.0755 59.8128C98.9966 59.8917 98.9966 60.0199 99.0755 60.0988C99.6527 60.6765 100.646 60.9933 101.376 61.1571C101.583 61.204 101.791 61.2275 102 61.2275C102.209 61.2275 102.417 61.204 102.623 61.1575C103.354 60.9933 104.347 60.6765 104.924 60.0988C105.003 60.0199 105.003 59.8917 104.924 59.8128C104.846 59.7339 104.717 59.7339 104.638 59.8128Z" fill="#9BC53D"/>
<path d="M111.24 43.0828C111.351 43.0771 111.437 42.982 111.432 42.8708C111.408 42.4019 111.538 41.9925 111.817 41.6543C111.874 41.5855 111.946 41.6029 111.974 41.6122C111.998 41.6207 112.076 41.6563 112.076 41.7542C112.076 42.5168 112.239 43.2729 112.563 44.0015C112.823 44.5861 112.936 45.1375 112.9 45.6326C112.9 45.6399 112.811 46.3802 112.231 46.8345C112.143 46.9033 112.128 47.0303 112.197 47.1185C112.237 47.1695 112.296 47.1962 112.356 47.1962C112.4 47.1962 112.444 47.1821 112.481 47.1533C113.193 46.5955 113.299 45.7148 113.304 45.6699C113.345 45.1003 113.22 44.4837 112.933 43.8377C112.633 43.1617 112.481 42.4606 112.481 41.7551C112.481 41.5184 112.336 41.3129 112.112 41.2324C111.892 41.1539 111.654 41.2178 111.505 41.3974C111.165 41.8101 111 42.3267 111.028 42.8914C111.033 43.0023 111.118 43.0913 111.24 43.0828Z" fill="#9BC53D"/>
<path d="M91.5196 47.1525C91.5564 47.1816 91.6005 47.1954 91.6442 47.1954C91.7041 47.1954 91.7636 47.1687 91.8036 47.1177C91.8724 47.0299 91.857 46.9025 91.7692 46.8337C91.1936 46.3831 91.1005 45.6395 91.1005 45.6395C91.0552 45.0125 91.2587 44.402 91.4375 44.0007C91.7607 43.2733 91.925 42.5172 91.925 41.7534C91.925 41.6555 92.0023 41.6199 92.0261 41.6114C92.0548 41.6013 92.1273 41.5843 92.1839 41.6535C92.463 41.9917 92.5925 42.4011 92.569 42.87C92.5634 42.9816 92.6495 43.0767 92.7612 43.082C92.8684 43.0892 92.9675 43.0014 92.9732 42.8898C93.0011 42.325 92.8364 41.808 92.4958 41.3954C92.3473 41.2162 92.1087 41.1519 91.8894 41.2303C91.6653 41.3108 91.5204 41.516 91.5204 41.753C91.5204 42.4598 91.3683 43.1604 91.0678 43.8356C90.7809 44.4809 90.6559 45.0974 90.698 45.6755C90.7016 45.7139 90.8068 46.5946 91.5196 47.1525Z" fill="#9BC53D"/>
<path d="M116.878 50.7348C116.281 50.0211 115.429 49.899 115.03 49.8832C114.951 49.88 114.926 49.7792 114.989 49.7319C115.437 49.3985 115.926 49.3468 116.223 49.3532C116.307 49.3553 116.347 49.2485 116.281 49.1959C115.441 48.5243 114.671 48.3358 114.1 48.3176C114.424 48.0401 114.677 47.7128 114.847 47.3301C115.639 45.5525 114.503 43.124 113.979 42.1624C113.783 41.8036 113.67 41.3104 113.646 40.6959C113.623 40.1449 113.293 39.6789 112.784 39.4803C112.284 39.2853 111.737 39.401 111.357 39.7825C110.613 40.5268 110.132 41.1349 109.903 41.4419C108.554 38.316 106.253 36.9539 104.474 36.362C105.077 33.9266 104.155 32.4929 103.744 32.0123C103.689 31.948 103.593 32.0095 103.614 32.0945C104.003 33.7021 103.788 34.7495 103.631 35.22C103.608 35.2888 103.512 35.273 103.509 35.2002C103.438 33.7377 102.723 33.0375 102.347 32.7672C102.208 32.6677 102.157 32.7134 102.219 32.8797C102.592 33.8793 102.534 34.7329 102.49 35.0663C102.479 35.1496 102.422 35.1674 102.369 35.1055C101.305 33.8672 101.24 31.8857 101.253 31.1927C101.254 31.1256 101.169 31.1025 101.138 31.1604C100.22 32.8445 100.688 34.2737 100.871 34.7689C100.896 34.8369 100.826 34.8972 100.767 34.8612C100.15 34.4878 99.7297 33.4796 99.5541 32.9841C99.5246 32.9007 99.4113 32.9096 99.3959 32.9978C99.2916 33.5909 99.1864 34.9704 100.096 36.186C98.281 36.6634 95.6001 37.9551 94.0976 41.4419C93.8686 41.1353 93.3876 40.5272 92.6436 39.7825C92.263 39.401 91.716 39.2849 91.2164 39.4803C90.7071 39.6793 90.377 40.1449 90.3547 40.6959C90.3296 41.3104 90.2176 41.8036 90.0218 42.1624C89.4967 43.1236 88.3611 45.5517 89.1528 47.3297C89.3235 47.7128 89.5764 48.0401 89.9004 48.3176C89.3296 48.3358 88.5593 48.5243 87.7195 49.1959C87.6536 49.2489 87.6932 49.3553 87.7778 49.3532C88.0743 49.3468 88.5638 49.3985 89.0112 49.7319C89.0747 49.7792 89.0492 49.88 88.97 49.8832C88.5715 49.899 87.7199 50.0211 87.1228 50.7348C87.0674 50.8007 87.1212 50.8998 87.2057 50.8832C87.5302 50.8193 88.1249 50.7481 88.5699 50.9593C88.6204 50.9832 88.6338 51.0507 88.597 51.0928C88.4606 51.2493 88.122 51.5993 87.5993 51.8825C87.5237 51.9233 87.5366 52.0342 87.6212 52.0499C88.0047 52.1211 88.9287 52.162 89.6807 51.8554C89.6257 52.1483 89.601 52.4509 89.6112 52.7583C89.7908 58.1319 94.3634 60.03 96.3206 60.5968C96.9654 60.7837 97.5731 61.0459 98.1257 61.3768C98.2612 61.4581 98.4177 61.5641 98.5937 61.683C99.1783 62.0787 99.9785 62.62 100.964 62.9209C101.303 63.0241 101.651 63.0759 102 63.0759C102.348 63.0759 102.696 63.0241 103.035 62.9209C104.021 62.62 104.822 62.0787 105.406 61.683C105.582 61.5637 105.738 61.4581 105.874 61.3768C106.427 61.0463 107.034 60.7837 107.679 60.5968C109.636 60.03 114.209 58.1315 114.389 52.7583C114.399 52.4504 114.374 52.1483 114.319 51.8554C115.071 52.162 115.995 52.1211 116.379 52.0499C116.463 52.0342 116.476 51.9233 116.401 51.8825C115.878 51.5993 115.539 51.2493 115.403 51.0928C115.366 51.0507 115.38 50.9832 115.43 50.9593C115.875 50.7481 116.47 50.8193 116.794 50.8832C116.879 50.9002 116.933 50.8011 116.878 50.7348ZM111.642 40.0685C111.912 39.7982 112.284 39.719 112.636 39.8573C112.994 39.9969 113.226 40.3246 113.241 40.7125C113.269 41.3893 113.397 41.9427 113.623 42.3562C114.12 43.2648 115.196 45.5529 114.477 47.1654C114.13 47.9442 113.391 48.4774 112.286 48.7545C111.943 48.2209 111.743 47.625 111.709 47.0073C111.652 45.9765 111.37 45.1989 111.144 44.7281C110.809 44.0314 110.581 43.4558 110.428 42.9169C110.325 42.5524 110.207 42.2114 110.082 41.8841C110.091 41.8707 110.625 41.0863 111.642 40.0685ZM89.5222 47.165C88.8037 45.5521 89.8802 43.2644 90.3766 42.3562C90.6027 41.9427 90.7309 41.3893 90.7585 40.7125C90.7742 40.3246 91.006 39.9969 91.3633 39.8573C91.7156 39.7198 92.0874 39.7982 92.3572 40.0685C93.3743 41.0867 93.9083 41.8711 93.9172 41.8841C93.7922 42.2114 93.6748 42.5524 93.5713 42.9169C93.4184 43.4562 93.191 44.0314 92.8556 44.7281C92.6291 45.1998 92.3471 45.9773 92.2901 47.0077C92.2561 47.625 92.0567 48.2213 91.714 48.7545C90.6084 48.477 89.8693 47.9438 89.5222 47.165ZM107.567 60.208C106.889 60.4042 106.249 60.681 105.666 61.0297C105.525 61.1138 105.363 61.2235 105.18 61.3472C104.617 61.7283 103.845 62.2502 102.918 62.5334C102.317 62.7166 101.683 62.7166 101.083 62.5334C100.155 62.2506 99.3838 61.7291 98.8207 61.3477C98.6374 61.2239 98.4748 61.1138 98.3336 61.0297C97.7511 60.681 97.1115 60.4042 96.4334 60.208C91.0141 58.6388 90.0861 54.8583 90.0153 52.745C89.9797 51.6705 90.3984 50.6644 91.1666 49.9839L91.2027 49.9524C92.104 49.1696 92.6339 48.1319 92.6946 47.0299C92.748 46.0663 93.0102 45.3417 93.2209 44.9036C93.5664 44.1856 93.8015 43.5893 93.9613 43.0277C94.7667 40.1894 96.3566 38.1962 98.686 37.1031C100.335 36.3297 101.792 36.3062 101.957 36.3062C101.966 36.3062 101.971 36.3062 101.972 36.3062H101.981C102 36.3058 103.522 36.2831 105.274 37.0955C107.628 38.1865 109.232 40.1822 110.039 43.0273C110.199 43.5893 110.434 44.1851 110.779 44.9036C110.99 45.3413 111.252 46.0659 111.306 47.0299C111.366 48.1319 111.896 49.1696 112.799 49.954L112.835 49.9859C113.602 50.6652 114.021 51.6709 113.985 52.7454C113.914 54.8587 112.986 58.6392 107.567 60.208Z" fill="#9BC53D"/>
<path d="M109.269 52.1701L107.628 52.8279C107.628 52.8279 106.683 53.1831 105.436 53.6378C104.188 54.0925 102.968 54.2632 102.336 54.3154C101.705 54.3676 99.5537 54.2147 99.5537 54.2147L96.2195 53.9817C96.0229 53.9679 95.8267 53.9473 95.6317 53.9202L95.607 53.9165C95.2971 53.8732 95.0511 54.175 95.1555 54.4704C95.2716 54.7993 95.4326 55.1075 95.6037 55.3802C96.0338 56.0671 96.6196 56.6452 97.2802 57.1145C98.6864 58.1129 99.7742 58.4665 100.994 58.7375C101.34 58.8144 101.828 58.8128 102.301 58.7804C103.164 58.7217 104.018 58.5522 104.844 58.2986C105.334 58.1477 105.75 58.0061 106.098 57.877C107.333 57.4207 108.42 56.6088 109.126 55.4971C109.345 55.1516 109.503 54.8207 109.63 54.489C109.828 53.9711 109.841 53.1026 109.824 52.5306C109.815 52.2502 109.529 52.0661 109.269 52.1701ZM103.52 54.3336C103.696 54.3182 104.04 54.2754 104.383 54.1621C104.458 54.1374 104.537 54.1916 104.54 54.2685L104.562 54.7968C104.577 55.169 104.446 55.5311 104.195 55.8102C104.166 55.8426 104.114 55.8418 104.085 55.809L103.642 55.3066C103.549 55.201 103.49 55.0715 103.473 54.9344L103.414 54.461C103.407 54.3967 103.454 54.3397 103.52 54.3336ZM98.4882 55.4595C98.423 55.5036 98.3413 55.5153 98.2665 55.491L98.0383 55.4178C97.777 55.3337 97.5965 55.0946 97.5872 54.8203L97.5743 54.4412C97.5715 54.3542 97.6443 54.2843 97.7313 54.2907L98.4044 54.3413C98.4647 54.3458 98.5161 54.3874 98.5335 54.4453L98.6771 54.9307C98.7362 55.129 98.6597 55.343 98.4882 55.4595ZM99.468 56.0068L99.2487 55.7892C99.0428 55.5845 98.9425 55.2964 98.9765 55.008L99.0331 54.5282C99.0424 54.4485 99.1132 54.3903 99.1933 54.3959L99.9292 54.4489C100.003 54.4542 100.062 54.5132 100.068 54.5873L100.074 54.6556C100.1 54.9975 100.02 55.3393 99.8438 55.6334L99.633 55.9858C99.5978 56.0453 99.5165 56.0554 99.468 56.0068ZM100.534 57.9175L100.398 58.2828C100.378 58.3362 100.316 58.3702 100.255 58.3589C100.037 58.3176 99.847 58.2391 99.7342 58.1857C99.6698 58.155 99.6379 58.0886 99.6589 58.0259C99.7423 57.7771 99.8721 57.5433 100.043 57.3349C100.143 57.2124 100.348 57.2168 100.445 57.3439C100.573 57.5121 100.606 57.7249 100.534 57.9175ZM100.418 54.6301C100.398 54.5529 100.455 54.4768 100.527 54.4857C100.736 54.5112 101.129 54.548 101.519 54.5258C101.578 54.5225 101.626 54.5695 101.625 54.6342C101.625 54.9048 101.623 55.5553 101.623 55.5553C101.622 55.758 101.523 55.8478 101.415 55.8276L101.046 55.7576C100.831 55.7168 100.657 55.5456 100.597 55.3159L100.418 54.6301ZM101.534 58.4681C101.518 58.5462 101.447 58.604 101.367 58.6C101.092 58.5858 100.932 58.53 100.846 58.4863C100.792 58.4592 100.762 58.4026 100.762 58.3427V57.9903C100.762 57.8633 100.851 57.7541 100.976 57.7294L101.492 57.6262C101.596 57.6052 101.689 57.6978 101.668 57.8026L101.534 58.4681ZM102.736 58.5021C102.569 58.547 102.248 58.6149 101.941 58.5781C101.875 58.5704 101.83 58.5077 101.837 58.4422L101.903 57.7702C101.912 57.6723 101.977 57.5886 102.07 57.5546L102.301 57.4697C102.443 57.4179 102.599 57.4992 102.637 57.6452L102.823 58.3508C102.84 58.4167 102.802 58.4843 102.736 58.5021ZM102.921 55.4405L102.723 55.5582C102.604 55.6286 102.462 55.6532 102.325 55.6274C102.185 55.6007 102.077 55.4939 102.052 55.3583L101.926 54.6702C101.912 54.5901 101.975 54.5185 102.06 54.5173C102.399 54.5124 102.705 54.4756 102.876 54.4505C102.955 54.4392 103.026 54.4954 103.031 54.5723L103.073 55.1532C103.081 55.2693 103.023 55.3798 102.921 55.4405ZM103.768 58.3831L103.237 58.4859C103.161 58.5009 103.086 58.4555 103.067 58.3803C103.018 58.1853 102.95 57.7933 103.045 57.341C103.068 57.2322 103.179 57.1654 103.284 57.2039C103.528 57.2937 103.712 57.5 103.773 57.7537L103.881 58.2072C103.901 58.2873 103.849 58.3674 103.768 58.3831ZM104.813 58.0332C104.81 58.07 104.785 58.1008 104.75 58.1117L104.236 58.2674C104.183 58.2832 104.128 58.2484 104.121 58.1938L104.068 57.8208C104.031 57.5554 104.153 57.2929 104.38 57.1505C104.486 57.0841 104.625 57.1108 104.698 57.212L104.811 57.3677C104.845 57.4138 104.86 57.4701 104.856 57.5267L104.813 58.0332ZM105.781 54.6326C105.73 54.8466 105.592 55.0319 105.399 55.1476L105.3 55.2062C105.165 55.2867 104.988 55.2095 104.961 55.0578L104.815 54.2381C104.796 54.1338 104.859 54.0318 104.962 53.9974L105.634 53.7762C105.8 53.7211 105.965 53.8651 105.925 54.0306L105.781 54.6326ZM106.729 54.4704C106.644 54.529 106.529 54.5161 106.459 54.4396L106.303 54.2669C106.196 54.1495 106.132 54.0007 106.118 53.8429L106.107 53.7074C106.101 53.6358 106.145 53.5694 106.213 53.5464L106.744 53.3651C106.821 53.3388 106.906 53.3765 106.938 53.4513L106.988 53.5658C107.127 53.8906 107.019 54.2689 106.729 54.4704Z" fill="#9BC53D"/>
<path d="M97.4648 52.0136C97.5538 51.9464 97.5716 51.8194 97.5044 51.7304C97.4372 51.6414 97.3106 51.624 97.2208 51.6903C96.5145 52.2227 95.6932 52.5379 95.266 52.6778C94.6827 52.8696 94.2053 53.2478 93.9229 53.7434C93.6252 54.2653 93.5613 54.847 93.7336 55.4712C93.7583 55.561 93.8396 55.6197 93.9282 55.6197C93.946 55.6197 93.9642 55.6173 93.982 55.6124C94.0896 55.5825 94.1527 55.4712 94.1232 55.3636C93.9808 54.8466 94.0314 54.3688 94.2741 53.9437C94.5071 53.5351 94.9044 53.2223 95.3923 53.0613C95.8433 52.9141 96.7115 52.5811 97.4648 52.0136Z" fill="#9BC53D"/>
<path d="M102.905 43.0067C103.022 43.2385 103.232 43.4113 103.483 43.4813C103.564 43.5039 103.648 43.5152 103.731 43.5152C103.904 43.5152 104.075 43.4671 104.223 43.3745C104.394 43.2677 104.539 43.1204 104.645 42.9477L105.26 41.9391C105.436 41.6499 105.742 41.4359 106.099 41.3517C106.464 41.266 106.846 41.3234 107.144 41.5103C107.24 41.5698 107.364 41.541 107.423 41.4464C107.482 41.3517 107.453 41.2271 107.359 41.1676C106.969 40.9233 106.477 40.8468 106.006 40.9581C105.544 41.0673 105.146 41.3481 104.914 41.7288L104.3 42.7373C104.227 42.8562 104.126 42.9578 104.008 43.0318C103.882 43.1103 103.735 43.1321 103.591 43.0917C103.448 43.0516 103.332 42.957 103.266 42.8239L103.18 42.6552C103.13 42.5556 103.007 42.516 102.908 42.5662C102.808 42.6167 102.768 42.7385 102.819 42.838L102.905 43.0067Z" fill="#9BC53D"/>
<path d="M95.9645 42.783C96.3011 42.4849 96.7125 42.2826 97.1534 42.198C97.1971 42.1895 97.242 42.1827 97.2877 42.177C98.094 42.0742 98.855 42.3433 99.3433 42.9177C99.5625 43.1787 99.8825 43.3271 100.223 43.3271C100.227 43.3271 100.232 43.3271 100.236 43.3271C100.582 43.3231 100.904 43.1665 101.12 42.8971C101.19 42.8101 101.176 42.6827 101.089 42.6127C101.002 42.5435 100.875 42.5569 100.804 42.6438C100.665 42.8186 100.456 42.9201 100.232 42.9226C100.014 42.9432 99.7976 42.8287 99.6329 42.6333C99.075 41.9767 98.1822 41.6584 97.2372 41.7757C97.1834 41.7826 97.13 41.7907 97.0778 41.8008C96.5648 41.8991 96.087 42.1341 95.6963 42.48C95.6125 42.554 95.6048 42.6819 95.6789 42.7656C95.7533 42.8494 95.8811 42.857 95.9645 42.783Z" fill="#9BC53D"/>
<path d="M109.528 51.1102C109.08 51.0851 108.205 50.9933 107.384 50.6607C107.281 50.6191 107.163 50.6688 107.121 50.7724C107.079 50.876 107.129 50.9937 107.233 51.0358C108.107 51.3897 109.032 51.4872 109.504 51.5139C110.018 51.5431 110.482 51.7429 110.812 52.0775C111.157 52.4258 111.329 52.8744 111.325 53.4105C111.324 53.5221 111.414 53.6135 111.526 53.6143C111.526 53.6143 111.527 53.6143 111.527 53.6143C111.638 53.6143 111.729 53.5245 111.729 53.4137C111.734 52.766 111.522 52.2211 111.1 51.7931C110.7 51.3873 110.141 51.145 109.528 51.1102Z" fill="#9BC53D"/>
<path d="M103.833 46.1254C103.833 47.4571 104.916 48.5401 106.248 48.5401C107.579 48.5401 108.662 47.4567 108.662 46.1254C108.662 44.794 107.579 43.7106 106.248 43.7106C104.916 43.7106 103.833 44.794 103.833 46.1254ZM108.258 46.1254C108.258 47.2338 107.356 48.1356 106.248 48.1356C105.139 48.1356 104.238 47.2338 104.238 46.1254C104.238 45.0169 105.139 44.1152 106.248 44.1152C107.356 44.1152 108.258 45.0169 108.258 46.1254Z" fill="#9BC53D"/>
<path d="M105.224 46.1254C105.224 46.6905 105.683 47.1489 106.248 47.1489C106.813 47.1489 107.271 46.6905 107.271 46.1254C107.271 45.5602 106.813 45.1019 106.248 45.1019C105.683 45.1019 105.224 45.5602 105.224 46.1254ZM106.039 46.7803C105.947 46.7803 105.873 46.7059 105.873 46.6141C105.873 46.5222 105.947 46.4478 106.039 46.4478C106.131 46.4478 106.205 46.5222 106.205 46.6141C106.205 46.7059 106.131 46.7803 106.039 46.7803ZM106.545 45.5096C106.675 45.5096 106.781 45.6156 106.781 45.7463C106.781 45.877 106.675 45.983 106.545 45.983C106.414 45.983 106.308 45.877 106.308 45.7463C106.308 45.6156 106.414 45.5096 106.545 45.5096Z" fill="#9BC53D"/>
<path d="M97.7523 48.5405C99.084 48.5405 100.167 47.4571 100.167 46.1258C100.167 44.7944 99.0836 43.711 97.7523 43.711C96.4209 43.711 95.3375 44.7944 95.3375 46.1258C95.3375 47.4571 96.4205 48.5405 97.7523 48.5405ZM97.7523 44.1152C98.8607 44.1152 99.7625 45.0169 99.7625 46.1254C99.7625 47.2338 98.8607 48.1356 97.7523 48.1356C96.6438 48.1356 95.7421 47.2338 95.7421 46.1254C95.7421 45.0169 96.6438 44.1152 97.7523 44.1152Z" fill="#9BC53D"/>
<path d="M97.7523 47.1489C98.3174 47.1489 98.7758 46.6905 98.7758 46.1254C98.7758 45.5602 98.3174 45.1019 97.7523 45.1019C97.1871 45.1019 96.7288 45.5602 96.7288 46.1254C96.7288 46.6905 97.1871 47.1489 97.7523 47.1489ZM98.0492 45.5096C98.1799 45.5096 98.2859 45.6156 98.2859 45.7463C98.2859 45.877 98.1799 45.983 98.0492 45.983C97.9185 45.983 97.8126 45.877 97.8126 45.7463C97.8126 45.6156 97.9185 45.5096 98.0492 45.5096ZM97.5435 46.4482C97.6354 46.4482 97.7098 46.5226 97.7098 46.6145C97.7098 46.7063 97.6354 46.7807 97.5435 46.7807C97.4517 46.7807 97.3773 46.7063 97.3773 46.6145C97.3773 46.5226 97.4521 46.4482 97.5435 46.4482Z" fill="#9BC53D"/>
<defs>
<filter id="filter0_dd" x="7.69531" y="77.9531" width="168.352" height="54.3945" filterUnits="userSpaceOnUse" color-interpolation-filters="sRGB">
<feFlood flood-opacity="0" result="BackgroundImageFix"/>
<feColorMatrix in="SourceAlpha" type="matrix" values="0 0 0 0 0 0 0 0 0 0 0 0 0 0 0 0 0 0 127 0"/>
<feOffset dx="3" dy="4"/>
<feGaussianBlur stdDeviation="2"/>
<feColorMatrix type="matrix" values="0 0 0 0 0 0 0 0 0 0 0 0 0 0 0 0 0 0 0.25 0"/>
<feBlend mode="normal" in2="BackgroundImageFix" result="effect1_dropShadow"/>
<feColorMatrix in="SourceAlpha" type="matrix" values="0 0 0 0 0 0 0 0 0 0 0 0 0 0 0 0 0 0 127 0"/>
<feOffset dx="4" dy="4"/>
<feGaussianBlur stdDeviation="2"/>
<feColorMatrix type="matrix" values="0 0 0 0 0 0 0 0 0 0 0 0 0 0 0 0 0 0 0.25 0"/>
<feBlend mode="normal" in2="effect1_dropShadow" result="effect2_dropShadow"/>
<feBlend mode="normal" in="SourceGraphic" in2="effect2_dropShadow" result="shape"/>
</filter>
<filter id="filter1_dd" x="0.78125" y="13.875" width="168.344" height="59.625" filterUnits="userSpaceOnUse" color-interpolation-filters="sRGB">
<feFlood flood-opacity="0" result="BackgroundImageFix"/>
<feColorMatrix in="SourceAlpha" type="matrix" values="0 0 0 0 0 0 0 0 0 0 0 0 0 0 0 0 0 0 127 0"/>
<feOffset dx="3" dy="4"/>
<feGaussianBlur stdDeviation="2"/>
<feColorMatrix type="matrix" values="0 0 0 0 0 0 0 0 0 0 0 0 0 0 0 0 0 0 0.25 0"/>
<feBlend mode="normal" in2="BackgroundImageFix" result="effect1_dropShadow"/>
<feColorMatrix in="SourceAlpha" type="matrix" values="0 0 0 0 0 0 0 0 0 0 0 0 0 0 0 0 0 0 127 0"/>
<feOffset dx="4" dy="4"/>
<feGaussianBlur stdDeviation="2"/>
<feColorMatrix type="matrix" values="0 0 0 0 0 0 0 0 0 0 0 0 0 0 0 0 0 0 0.25 0"/>
<feBlend mode="normal" in2="effect1_dropShadow" result="effect2_dropShadow"/>
<feBlend mode="normal" in="SourceGraphic" in2="effect2_dropShadow" result="shape"/>
</filter>
<clipPath id="clip0">
<path d="M60 24H125V89H60V24Z" fill="white"/>
</clipPath>
</defs>
</svg>
