<svg width="370" height="87" viewBox="0 0 370 87" fill="none" xmlns="http://www.w3.org/2000/svg">
<rect width="370" height="87" rx="5" fill="#FA7921"/>
<path d="M29.224 65.32C27.432 65.32 25.9813 64.808 24.872 63.784C23.8053 62.7173 23.272 61.3093 23.272 59.56V29.416H14.248C12.3707 29.416 10.9627 29.032 10.024 28.264C9.128 27.4533 8.68 26.2373 8.68 24.616C8.68 22.9947 9.128 21.8 10.024 21.032C10.9627 20.264 12.3707 19.88 14.248 19.88H44.2C46.0773 19.88 47.464 20.264 48.36 21.032C49.2987 21.8 49.768 22.9947 49.768 24.616C49.768 26.2373 49.2987 27.4533 48.36 28.264C47.464 29.032 46.0773 29.416 44.2 29.416H35.176V59.56C35.176 61.3093 34.6213 62.7173 33.512 63.784C32.4453 64.808 31.016 65.32 29.224 65.32ZM67.546 32.872C68.9967 32.744 70.1487 33.0853 71.002 33.896C71.8553 34.664 72.282 35.816 72.282 37.352C72.282 39.0587 71.8767 40.296 71.066 41.064C70.298 41.832 68.89 42.3227 66.842 42.536L64.922 42.728C62.7887 42.984 61.2527 43.6667 60.314 44.776C59.418 45.8427 58.97 47.3147 58.97 49.192V60.136C58.97 61.8853 58.4153 63.208 57.306 64.104C56.2393 64.9573 54.8953 65.384 53.274 65.384C51.6527 65.384 50.2873 64.9573 49.178 64.104C48.1113 63.208 47.578 61.8853 47.578 60.136V37.992C47.578 36.3707 48.1113 35.112 49.178 34.216C50.2873 33.32 51.61 32.872 53.146 32.872C54.7247 32.872 55.9833 33.2987 56.922 34.152C57.9033 35.0053 58.394 36.2 58.394 37.736V38.952C59.0767 37.0747 60.186 35.624 61.722 34.6C63.3007 33.576 64.9433 33.0213 66.65 32.936L67.546 32.872ZM89.6375 65.512C86.1815 65.512 83.1308 64.8507 80.4855 63.528C77.8828 62.1627 75.8562 60.2427 74.4055 57.768C72.9975 55.2933 72.2935 52.392 72.2935 49.064C72.2935 45.736 72.9975 42.856 74.4055 40.424C75.8562 37.9493 77.8828 36.0507 80.4855 34.728C83.0882 33.4053 86.1388 32.744 89.6375 32.744C93.1362 32.744 96.1868 33.4053 98.7895 34.728C101.392 36.0507 103.398 37.9493 104.806 40.424C106.256 42.856 106.982 45.736 106.982 49.064C106.982 52.392 106.256 55.2933 104.806 57.768C103.398 60.2427 101.392 62.1627 98.7895 63.528C96.1868 64.8507 93.1362 65.512 89.6375 65.512ZM89.6375 57C93.6908 57 95.7175 54.3547 95.7175 49.064C95.7175 43.7733 93.6908 41.128 89.6375 41.128C85.5842 41.128 83.5575 43.7733 83.5575 49.064C83.5575 54.3547 85.5842 57 89.6375 57ZM117.837 65.384C116.215 65.384 114.85 64.9573 113.741 64.104C112.674 63.208 112.141 61.8853 112.141 60.136V24.872C112.141 23.1227 112.674 21.8 113.741 20.904C114.85 20.008 116.215 19.56 117.837 19.56C119.458 19.56 120.802 20.008 121.869 20.904C122.978 21.8 123.533 23.1227 123.533 24.872V60.136C123.533 61.8853 122.978 63.208 121.869 64.104C120.802 64.9573 119.458 65.384 117.837 65.384ZM135.837 65.384C134.215 65.384 132.85 64.9573 131.741 64.104C130.674 63.208 130.141 61.8853 130.141 60.136V24.872C130.141 23.1227 130.674 21.8 131.741 20.904C132.85 20.008 134.215 19.56 135.837 19.56C137.458 19.56 138.802 20.008 139.869 20.904C140.978 21.8 141.533 23.1227 141.533 24.872V60.136C141.533 61.8853 140.978 63.208 139.869 64.104C138.802 64.9573 137.458 65.384 135.837 65.384ZM173.045 65.384C171.296 65.384 169.888 64.8507 168.821 63.784C167.754 62.7173 167.221 61.3093 167.221 59.56V25.32C167.221 23.5707 167.69 22.2267 168.629 21.288C169.568 20.3493 170.912 19.88 172.661 19.88H194.165C196.085 19.88 197.493 20.264 198.389 21.032C199.285 21.7573 199.733 22.9307 199.733 24.552C199.733 26.1307 199.264 27.2827 198.325 28.008C197.429 28.7333 196.042 29.096 194.165 29.096H178.805V37.416H192.885C194.762 37.416 196.149 37.8 197.045 38.568C197.984 39.336 198.453 40.5093 198.453 42.088C198.453 43.6667 197.984 44.8187 197.045 45.544C196.149 46.2693 194.762 46.632 192.885 46.632H178.805V59.56C178.805 61.352 178.272 62.7813 177.205 63.848C176.181 64.872 174.794 65.384 173.045 65.384ZM209.149 65.384C207.528 65.384 206.162 64.9573 205.053 64.104C203.986 63.208 203.453 61.8853 203.453 60.136V38.12C203.453 36.3707 203.986 35.0693 205.053 34.216C206.162 33.32 207.528 32.872 209.149 32.872C210.77 32.872 212.114 33.32 213.181 34.216C214.29 35.0693 214.845 36.3707 214.845 38.12V60.136C214.845 61.8853 214.29 63.208 213.181 64.104C212.114 64.9573 210.77 65.384 209.149 65.384ZM209.149 28.392C207.229 28.392 205.693 27.9013 204.541 26.92C203.432 25.896 202.877 24.552 202.877 22.888C202.877 21.224 203.432 19.9013 204.541 18.92C205.693 17.9387 207.229 17.448 209.149 17.448C211.026 17.448 212.541 17.9387 213.693 18.92C214.845 19.9013 215.421 21.224 215.421 22.888C215.421 24.552 214.845 25.896 213.693 26.92C212.584 27.9013 211.069 28.392 209.149 28.392ZM242.637 32.744C246.392 32.744 249.186 33.8747 251.021 36.136C252.856 38.3547 253.773 41.7467 253.773 46.312V60.136C253.773 61.7573 253.261 63.0373 252.237 63.976C251.213 64.9147 249.826 65.384 248.077 65.384C246.328 65.384 244.941 64.9147 243.917 63.976C242.893 63.0373 242.381 61.7573 242.381 60.136V46.824C242.381 44.9467 242.04 43.5813 241.357 42.728C240.717 41.8747 239.736 41.448 238.413 41.448C236.706 41.448 235.341 42.0027 234.317 43.112C233.336 44.1787 232.845 45.6293 232.845 47.464V60.136C232.845 61.7573 232.333 63.0373 231.309 63.976C230.285 64.9147 228.898 65.384 227.149 65.384C225.4 65.384 224.013 64.9147 222.989 63.976C221.965 63.0373 221.453 61.7573 221.453 60.136V37.992C221.453 36.4987 221.986 35.2827 223.053 34.344C224.12 33.3627 225.506 32.872 227.213 32.872C228.834 32.872 230.114 33.32 231.053 34.216C232.034 35.112 232.525 36.2853 232.525 37.736C233.634 36.1147 235.064 34.8773 236.813 34.024C238.562 33.1707 240.504 32.744 242.637 32.744ZM287.723 19.56C289.43 19.56 290.816 20.0507 291.883 21.032C292.992 21.9707 293.547 23.1867 293.547 24.68V60.136C293.547 61.7573 293.035 63.0373 292.011 63.976C290.987 64.9147 289.622 65.384 287.915 65.384C286.336 65.384 285.035 64.9787 284.011 64.168C283.03 63.3147 282.475 62.1627 282.347 60.712C281.451 62.2053 280.128 63.3787 278.379 64.232C276.672 65.0853 274.774 65.512 272.683 65.512C269.995 65.512 267.584 64.8293 265.451 63.464C263.36 62.056 261.718 60.0933 260.523 57.576C259.328 55.0587 258.731 52.1787 258.731 48.936C258.731 45.6933 259.307 42.856 260.459 40.424C261.654 37.9493 263.296 36.0507 265.387 34.728C267.52 33.4053 269.952 32.744 272.683 32.744C274.688 32.744 276.523 33.1493 278.187 33.96C279.894 34.7707 281.216 35.8587 282.155 37.224V24.488C282.155 22.9947 282.646 21.8 283.627 20.904C284.651 20.008 286.016 19.56 287.723 19.56ZM276.139 57C278.144 57 279.68 56.3173 280.747 54.952C281.814 53.5867 282.347 51.624 282.347 49.064C282.347 46.5467 281.814 44.6267 280.747 43.304C279.68 41.9387 278.144 41.256 276.139 41.256C274.176 41.256 272.662 41.9173 271.595 43.24C270.528 44.5627 269.995 46.4613 269.995 48.936C269.995 51.496 270.528 53.48 271.595 54.888C272.704 56.296 274.219 57 276.139 57ZM325.803 54.888C326.784 54.888 327.574 55.272 328.171 56.04C328.811 56.808 329.131 57.8107 329.131 59.048C329.131 60.7547 328.299 62.056 326.635 62.952C325.184 63.6773 323.456 64.296 321.451 64.808C319.488 65.2773 317.675 65.512 316.011 65.512C312.512 65.512 309.462 64.8507 306.859 63.528C304.256 62.2053 302.251 60.3067 300.843 57.832C299.435 55.3573 298.731 52.456 298.731 49.128C298.731 45.9707 299.392 43.1547 300.715 40.68C302.08 38.1627 303.958 36.2213 306.347 34.856C308.779 33.448 311.51 32.744 314.539 32.744C317.483 32.744 320.064 33.384 322.283 34.664C324.502 35.944 326.208 37.7573 327.403 40.104C328.64 42.4507 329.259 45.2027 329.259 48.36C329.259 49.3413 329.024 50.1093 328.555 50.664C328.128 51.176 327.488 51.432 326.635 51.432H309.739C310.038 53.48 310.699 54.952 311.723 55.848C312.747 56.744 314.262 57.192 316.267 57.192C317.334 57.192 318.315 57.0853 319.211 56.872C320.107 56.616 321.11 56.2747 322.219 55.848C322.859 55.592 323.478 55.3787 324.075 55.208C324.715 54.9947 325.291 54.888 325.803 54.888ZM314.859 40.424C313.366 40.424 312.171 40.9147 311.275 41.896C310.379 42.8347 309.846 44.2213 309.675 46.056H319.723C319.467 42.3013 317.846 40.424 314.859 40.424ZM354.421 32.872C355.872 32.744 357.024 33.0853 357.877 33.896C358.73 34.664 359.157 35.816 359.157 37.352C359.157 39.0587 358.752 40.296 357.941 41.064C357.173 41.832 355.765 42.3227 353.717 42.536L351.797 42.728C349.664 42.984 348.128 43.6667 347.189 44.776C346.293 45.8427 345.845 47.3147 345.845 49.192V60.136C345.845 61.8853 345.29 63.208 344.181 64.104C343.114 64.9573 341.77 65.384 340.149 65.384C338.528 65.384 337.162 64.9573 336.053 64.104C334.986 63.208 334.453 61.8853 334.453 60.136V37.992C334.453 36.3707 334.986 35.112 336.053 34.216C337.162 33.32 338.485 32.872 340.021 32.872C341.6 32.872 342.858 33.2987 343.797 34.152C344.778 35.0053 345.269 36.2 345.269 37.736V38.952C345.952 37.0747 347.061 35.624 348.597 34.6C350.176 33.576 351.818 33.0213 353.525 32.936L354.421 32.872Z" fill="white"/>
<g filter="url(#filter0_d)">
<ellipse cx="91.2267" cy="48.2667" rx="15.3067" ry="15.3067" fill="white"/>
<path fill-rule="evenodd" clip-rule="evenodd" d="M72.2434 48.2175C72.2434 38.0575 80.6554 29.819 91.0392 29.819C101.423 29.819 109.834 38.0575 109.834 48.2175C109.834 58.3786 101.424 66.616 91.0392 66.616C88.1167 66.6188 85.2342 65.9517 82.6224 64.668L73.2201 73.8725L73.1972 73.8501C72.2575 74.7884 70.9406 75.3651 69.4681 75.3656C66.5854 75.3662 64.2865 73.1572 64.2871 70.3325C64.2871 68.8704 64.8844 67.5767 65.8571 66.6654L65.8254 66.6344L74.9381 57.714C73.17 54.8491 72.238 51.5646 72.2434 48.2175ZM91.2267 63.5733C99.6803 63.5733 106.533 56.7203 106.533 48.2667C106.533 39.813 99.6803 32.96 91.2267 32.96C82.773 32.96 75.92 39.813 75.92 48.2667C75.92 56.7203 82.773 63.5733 91.2267 63.5733Z" fill="#5BC0EB"/>
</g>
<path d="M91.2 32.8C82.5982 32.8 75.6 39.7982 75.6 48.4C75.6 57.0021 82.5982 64 91.2 64C99.8021 64 106.8 57.0018 106.8 48.4C106.8 39.7982 99.8021 32.8 91.2 32.8ZM91.2 62.7378C83.294 62.7378 76.8622 56.306 76.8622 48.4C76.8622 40.494 83.294 34.0622 91.2 34.0622C99.106 34.0622 105.538 40.494 105.538 48.4C105.538 56.306 99.106 62.7378 91.2 62.7378Z" fill="#1A1A1A"/>
<path d="M89.1295 50.5015C89.0815 50.9026 89.3516 51.285 89.7757 51.397C90.0689 51.474 90.3036 51.6895 90.404 51.9735C90.4961 52.2351 90.6473 52.48 90.8533 52.7012C90.9417 52.7962 91.0682 52.8508 91.2001 52.8508C91.332 52.8508 91.4585 52.7962 91.5469 52.7012C91.7526 52.4803 91.9038 52.2351 91.9962 51.9735C92.0963 51.6895 92.3313 51.474 92.6425 51.392C93.0489 51.285 93.319 50.9023 93.2704 50.5015C93.1615 49.5953 92.3509 49.3416 91.9372 49.3343C91.8511 49.3406 91.7782 49.4021 91.7766 49.4892C91.775 49.576 91.8445 49.6483 91.9315 49.6498C91.9691 49.6505 92.8536 49.6764 92.9571 50.5391C92.9864 50.7842 92.8167 51.0196 92.544 51.0919C92.1496 51.1954 91.8334 51.4857 91.698 51.8688C91.6204 52.089 91.4917 52.2967 91.3156 52.486C91.2575 52.5481 91.1417 52.5481 91.084 52.486C90.9079 52.2967 90.7792 52.089 90.7015 51.8688C90.5662 51.4857 90.2503 51.1954 89.8379 51.0868C89.5832 51.0196 89.4132 50.7842 89.4428 50.5391C89.5457 49.6817 90.4311 49.6508 90.4687 49.6498C90.5558 49.6476 90.6249 49.5757 90.623 49.4886C90.6214 49.4018 90.5457 49.3334 90.4627 49.3343C90.0496 49.3416 89.2387 49.5953 89.1295 50.5015Z" fill="#1A1A1A"/>
<path d="M93.2576 58.394C92.8398 58.8118 92.0503 59.0377 91.6168 59.1352C91.3407 59.1974 91.0595 59.1977 90.7825 59.1349C90.3492 59.0377 89.5597 58.8121 89.142 58.394C89.0804 58.3325 88.9804 58.3325 88.9189 58.394C88.8573 58.4555 88.8573 58.5555 88.9189 58.6171C89.3691 59.0677 90.1435 59.3148 90.7134 59.4425C90.8746 59.4792 91.0371 59.4975 91.1999 59.4975C91.3628 59.4975 91.525 59.4792 91.6862 59.4429C92.2564 59.3148 93.0304 59.0677 93.481 58.6171C93.5426 58.5555 93.5426 58.4555 93.481 58.394C93.4195 58.3325 93.3195 58.3325 93.2576 58.394Z" fill="#1A1A1A"/>
<path d="M98.4071 45.3446C98.4938 45.3401 98.5607 45.266 98.5566 45.1792C98.5383 44.8135 98.6396 44.4942 98.857 44.2304C98.9015 44.1767 98.9577 44.1903 98.9801 44.1975C98.9987 44.2042 99.059 44.2319 99.059 44.3083C99.059 44.9031 99.1868 45.4929 99.4392 46.0612C99.6421 46.5171 99.7305 46.9472 99.7024 47.3334C99.7017 47.3391 99.6326 47.9166 99.1801 48.2709C99.1117 48.3246 99.0997 48.4237 99.1533 48.4924C99.1846 48.5322 99.2306 48.553 99.2776 48.553C99.3117 48.553 99.3461 48.542 99.3752 48.5196C99.9308 48.0844 100.013 47.3975 100.017 47.3625C100.049 46.9182 99.952 46.4373 99.7279 45.9334C99.4938 45.4061 99.3748 44.8592 99.3748 44.3089C99.3748 44.1243 99.2622 43.964 99.0874 43.9012C98.9154 43.84 98.7299 43.8899 98.6141 44.03C98.3487 44.3518 98.2199 44.7548 98.242 45.1953C98.2455 45.2818 98.3121 45.3512 98.4071 45.3446Z" fill="#1A1A1A"/>
<path d="M83.0253 48.519C83.054 48.5417 83.0884 48.5524 83.1225 48.5524C83.1692 48.5524 83.2156 48.5316 83.2468 48.4918C83.3005 48.4233 83.2885 48.3239 83.22 48.2703C82.771 47.9188 82.6984 47.3388 82.6984 47.3388C82.6631 46.8497 82.8218 46.3736 82.9613 46.0605C83.2134 45.4932 83.3415 44.9034 83.3415 44.3077C83.3415 44.2313 83.4018 44.2035 83.4204 44.1969C83.4428 44.189 83.4993 44.1758 83.5434 44.2297C83.7612 44.4935 83.8621 44.8129 83.8438 45.1786C83.8394 45.2657 83.9066 45.3398 83.9937 45.3439C84.0773 45.3496 84.1547 45.2811 84.1591 45.194C84.1808 44.7535 84.0524 44.3503 83.7867 44.0284C83.6709 43.8886 83.4848 43.8384 83.3137 43.8997C83.1389 43.9625 83.0259 44.1224 83.0259 44.3074C83.0259 44.8586 82.9073 45.4051 82.6729 45.9318C82.4491 46.4351 82.3516 46.916 82.3844 47.3669C82.3873 47.3969 82.4693 48.0838 83.0253 48.519Z" fill="#1A1A1A"/>
<path d="M102.805 51.3131C102.339 50.7565 101.675 50.6612 101.364 50.6489C101.302 50.6463 101.282 50.5678 101.332 50.5308C101.681 50.2708 102.062 50.2305 102.294 50.2355C102.36 50.2371 102.391 50.1538 102.339 50.1128C101.684 49.5889 101.083 49.4419 100.638 49.4277C100.891 49.2112 101.088 48.956 101.221 48.6575C101.839 47.2709 100.953 45.3767 100.543 44.6267C100.391 44.3468 100.303 43.9621 100.284 43.4828C100.266 43.053 100.009 42.6895 99.6112 42.5346C99.2218 42.3825 98.7949 42.4727 98.4983 42.7703C97.918 43.3509 97.5428 43.8252 97.3645 44.0647C96.3125 41.6264 94.5177 40.564 93.1299 40.1023C93.6004 38.2028 92.8809 37.0845 92.5603 36.7096C92.5174 36.6594 92.4426 36.7074 92.4587 36.7736C92.762 38.0276 92.5944 38.8446 92.4723 39.2116C92.4543 39.2652 92.3795 39.2529 92.3767 39.1961C92.3215 38.0554 91.7642 37.5092 91.4704 37.2984C91.3622 37.2208 91.3228 37.2564 91.371 37.3861C91.6616 38.1658 91.6168 38.8316 91.5821 39.0917C91.5733 39.1567 91.5294 39.1705 91.4881 39.1223C90.6576 38.1564 90.6074 36.6108 90.6175 36.0703C90.6185 36.0179 90.5522 35.9999 90.5276 36.045C89.8116 37.3587 90.177 38.4735 90.3196 38.8597C90.3392 38.9127 90.2843 38.9598 90.2382 38.9317C89.7567 38.6404 89.4292 37.8541 89.2922 37.4675C89.2692 37.4025 89.1808 37.4095 89.1688 37.4783C89.0874 37.9409 89.0054 39.0169 89.7147 39.9651C88.2992 40.3374 86.2081 41.345 85.0361 44.0647C84.8575 43.8255 84.4823 43.3512 83.902 42.7703C83.6051 42.4727 83.1785 42.3822 82.7888 42.5346C82.3915 42.6898 82.134 43.053 82.1167 43.4828C82.0971 43.9621 82.0097 44.3468 81.857 44.6267C81.4474 45.3764 80.5617 47.2703 81.1792 48.6571C81.3123 48.956 81.5096 49.2112 81.7623 49.4277C81.3171 49.4419 80.7163 49.5889 80.0612 50.1128C80.0098 50.1541 80.0407 50.2371 80.1066 50.2355C80.3379 50.2305 80.7198 50.2708 81.0687 50.5308C81.1183 50.5678 81.0984 50.6463 81.0366 50.6489C80.7257 50.6612 80.0615 50.7565 79.5958 51.3131C79.5525 51.3645 79.5945 51.4418 79.6605 51.4289C79.9135 51.379 80.3774 51.3235 80.7245 51.4882C80.7639 51.5068 80.7743 51.5595 80.7456 51.5923C80.6393 51.7145 80.3752 51.9874 79.9675 52.2083C79.9085 52.2402 79.9186 52.3266 79.9845 52.3389C80.2837 52.3945 81.0044 52.4263 81.591 52.1872C81.5481 52.4156 81.5288 52.6516 81.5367 52.8915C81.6768 57.0829 85.2434 58.5634 86.77 59.0055C87.273 59.1513 87.747 59.3557 88.178 59.6139C88.2837 59.6773 88.4058 59.76 88.5431 59.8527C88.9991 60.1613 89.6232 60.5835 90.3922 60.8183C90.6563 60.8988 90.928 60.9392 91.1997 60.9392C91.4714 60.9392 91.7431 60.8988 92.0072 60.8183C92.7765 60.5835 93.4009 60.1613 93.8569 59.8527C93.9942 59.7596 94.1157 59.6773 94.2214 59.6139C94.6527 59.3561 95.1264 59.1513 95.6293 59.0055C97.1563 58.5634 100.723 57.0825 100.863 52.8915C100.871 52.6513 100.852 52.4156 100.809 52.1872C101.396 52.4263 102.116 52.3945 102.415 52.3389C102.481 52.3266 102.492 52.2402 102.433 52.2083C102.025 51.9874 101.761 51.7145 101.654 51.5923C101.626 51.5595 101.636 51.5068 101.676 51.4882C102.022 51.3235 102.486 51.379 102.74 51.4289C102.806 51.4421 102.847 51.3648 102.805 51.3131ZM98.7211 42.9934C98.9315 42.7826 99.2212 42.7208 99.4964 42.8287C99.7753 42.9375 99.9561 43.1931 99.9681 43.4957C99.9896 44.0236 100.09 44.4553 100.266 44.7778C100.653 45.4865 101.493 47.2713 100.932 48.529C100.662 49.1364 100.085 49.5523 99.2228 49.7685C98.9552 49.3523 98.7996 48.8875 98.7731 48.4056C98.7286 47.6016 98.5087 46.9951 98.332 46.6279C98.0707 46.0845 97.8931 45.6355 97.7741 45.2152C97.6933 44.9308 97.6018 44.6648 97.504 44.4096C97.5113 44.3991 97.9278 43.7873 98.7211 42.9934ZM81.4673 48.5287C80.9069 47.2706 81.7465 45.4862 82.1337 44.7778C82.3101 44.4553 82.4101 44.0236 82.4316 43.4957C82.4439 43.1931 82.6247 42.9375 82.9033 42.8287C83.1782 42.7214 83.4682 42.7826 83.6786 42.9934C84.4719 43.7876 84.8884 44.3995 84.8954 44.4096C84.7979 44.6648 84.7064 44.9308 84.6256 45.2152C84.5063 45.6358 84.329 46.0845 84.0674 46.6279C83.8907 46.9958 83.6707 47.6023 83.6263 48.406C83.5997 48.8875 83.4442 49.3526 83.1769 49.7685C82.3145 49.552 81.738 49.1361 81.4673 48.5287ZM95.5422 58.7022C95.0131 58.8553 94.5145 59.0711 94.0598 59.3431C93.9497 59.4088 93.8231 59.4943 93.6805 59.5908C93.241 59.8881 92.6392 60.2951 91.9157 60.516C91.4474 60.659 90.9526 60.659 90.4847 60.516C89.7611 60.2954 89.1594 59.8887 88.7201 59.5911C88.5772 59.4946 88.4503 59.4088 88.3402 59.3431C87.8858 59.0711 87.3869 58.8553 86.8581 58.7022C82.631 57.4782 81.9072 54.5295 81.8519 52.881C81.8242 52.0429 82.1508 51.2582 82.75 50.7274L82.7781 50.7028C83.4811 50.0922 83.8945 49.2829 83.9418 48.4233C83.9835 47.6717 84.1879 47.1065 84.3523 46.7648C84.6218 46.2047 84.8051 45.7396 84.9298 45.3016C85.558 43.0877 86.7981 41.533 88.615 40.6804C89.9012 40.0771 91.0375 40.0588 91.1662 40.0588C91.1735 40.0588 91.1776 40.0588 91.1782 40.0588H91.1849C91.1997 40.0585 92.3868 40.0408 93.754 40.6744C95.5902 41.5255 96.8407 43.0821 97.4705 45.3013C97.5952 45.7396 97.7785 46.2044 98.048 46.7648C98.2124 47.1062 98.4169 47.6714 98.4585 48.4233C98.5055 49.2829 98.9189 50.0922 99.6232 50.7041L99.6516 50.729C100.249 51.2588 100.576 52.0433 100.548 52.8814C100.493 54.5298 99.769 57.4786 95.5422 58.7022Z" fill="#1A1A1A"/>
<path d="M96.8698 52.4327L95.5896 52.9457C95.5896 52.9457 94.8528 53.2228 93.88 53.5775C92.9068 53.9321 91.9548 54.0653 91.4623 54.106C90.9697 54.1467 89.2919 54.0274 89.2919 54.0274L86.6912 53.8457C86.5379 53.8349 86.3848 53.8189 86.2327 53.7977L86.2135 53.7949C85.9718 53.7611 85.7799 53.9965 85.8613 54.2269C85.9519 54.4834 86.0775 54.7238 86.2109 54.9365C86.5464 55.4723 87.0033 55.9232 87.5186 56.2893C88.6154 57.068 89.4639 57.3438 90.4153 57.5552C90.6854 57.6152 91.0656 57.6139 91.4351 57.5887C92.1076 57.5429 92.7737 57.4107 93.418 57.2129C93.8008 57.0952 94.1249 56.9847 94.3965 56.8841C95.3599 56.5281 96.2075 55.8948 96.7581 55.0277C96.9291 54.7582 97.0525 54.5001 97.1516 54.2414C97.3062 53.8375 97.3163 53.16 97.3024 52.7138C97.2955 52.4951 97.0727 52.3516 96.8698 52.4327ZM92.3859 54.1202C92.5231 54.1082 92.791 54.0748 93.0589 53.9864C93.1173 53.9672 93.1788 54.0094 93.1814 54.0694L93.1984 54.4815C93.2104 54.7718 93.1082 55.0542 92.9122 55.2719C92.8895 55.2972 92.8488 55.2966 92.8261 55.271L92.4805 54.8791C92.408 54.7967 92.3622 54.6958 92.349 54.5888L92.3032 54.2196C92.2972 54.1694 92.3341 54.1249 92.3859 54.1202ZM88.4608 54.9984C88.41 55.0328 88.3463 55.0419 88.2879 55.023L88.1099 54.9659C87.9061 54.9002 87.7653 54.7137 87.7581 54.4998L87.748 54.2041C87.7458 54.1363 87.8026 54.0817 87.8704 54.0867L88.3955 54.1262C88.4425 54.1297 88.4826 54.1622 88.4961 54.2073L88.6082 54.5859C88.6542 54.7406 88.5946 54.9075 88.4608 54.9984ZM89.225 55.4253L89.054 55.2555C88.8934 55.0959 88.8152 54.8712 88.8417 54.6462L88.8858 54.272C88.8931 54.2098 88.9483 54.1644 89.0108 54.1688L89.5848 54.2101C89.6425 54.2142 89.6886 54.2603 89.6933 54.318L89.6974 54.3714C89.7179 54.638 89.6555 54.9046 89.5182 55.134L89.3538 55.4089C89.3263 55.4553 89.2629 55.4632 89.225 55.4253ZM90.0568 56.9156L89.9502 57.2006C89.9347 57.2422 89.8867 57.2687 89.8391 57.2599C89.6687 57.2277 89.5207 57.1665 89.4327 57.1248C89.3825 57.1009 89.3576 57.0491 89.374 57.0002C89.439 56.8061 89.5403 56.6237 89.6734 56.4612C89.7517 56.3656 89.9117 56.3691 89.9871 56.4682C90.0868 56.5994 90.113 56.7654 90.0568 56.9156ZM89.966 54.3515C89.9502 54.2912 89.9947 54.2319 90.0515 54.2388C90.2143 54.2587 90.5207 54.2874 90.8249 54.2701C90.8706 54.2676 90.9082 54.3042 90.9079 54.3546C90.9072 54.5657 90.9056 55.0731 90.9056 55.0731C90.9053 55.2312 90.828 55.3013 90.7441 55.2855L90.456 55.2309C90.2884 55.1991 90.1528 55.0656 90.1057 54.8863L89.966 54.3515ZM90.8365 57.3451C90.8242 57.406 90.7687 57.4511 90.7065 57.448C90.4917 57.4369 90.3667 57.3934 90.2998 57.3593C90.2581 57.3381 90.2342 57.294 90.2342 57.2473V56.9724C90.2342 56.8733 90.3039 56.7881 90.4011 56.7689L90.8034 56.6884C90.8851 56.672 90.9574 56.7443 90.941 56.826L90.8365 57.3451ZM91.7743 57.3716C91.644 57.4066 91.3938 57.4596 91.154 57.4309C91.1029 57.4249 91.0675 57.376 91.0726 57.3249L91.124 56.8008C91.1316 56.7244 91.1821 56.6591 91.2543 56.6326L91.4351 56.5663C91.5456 56.5259 91.6671 56.5894 91.697 56.7033L91.8419 57.2536C91.8554 57.305 91.8258 57.3577 91.7743 57.3716ZM91.9182 54.9835L91.7639 55.0754C91.6715 55.1303 91.5604 55.1495 91.4534 55.1293C91.3446 55.1085 91.26 55.0252 91.2408 54.9195L91.1426 54.3827C91.1313 54.3203 91.1808 54.2644 91.2464 54.2635C91.5115 54.2597 91.7497 54.231 91.8835 54.2114C91.9447 54.2026 92.0003 54.2464 92.0044 54.3064L92.0372 54.7595C92.0435 54.8501 91.9978 54.9362 91.9182 54.9835ZM92.5787 57.2788L92.165 57.359C92.1054 57.3706 92.0473 57.3353 92.0325 57.2766C91.994 57.1245 91.941 56.8188 92.0151 56.466C92.0328 56.3811 92.1199 56.329 92.2013 56.359C92.3922 56.4291 92.5354 56.59 92.5828 56.7878L92.6673 57.1416C92.6825 57.204 92.6421 57.2665 92.5787 57.2788ZM93.3944 57.0059C93.3918 57.0346 93.3723 57.0586 93.3448 57.0671L92.9438 57.1886C92.9027 57.2009 92.8601 57.1737 92.8541 57.1311L92.8134 56.8402C92.7844 56.6332 92.8794 56.4284 93.0564 56.3173C93.1391 56.2656 93.2476 56.2864 93.3047 56.3653L93.3928 56.4868C93.419 56.5228 93.431 56.5666 93.4275 56.6108L93.3944 57.0059ZM94.1492 54.3534C94.1091 54.5203 94.0018 54.6648 93.851 54.7551L93.7743 54.8008C93.6689 54.8636 93.531 54.8034 93.5099 54.685L93.3956 54.0457C93.3811 53.9643 93.4297 53.8848 93.5105 53.858L94.0343 53.6854C94.164 53.6425 94.2927 53.7548 94.2618 53.8839L94.1492 54.3534ZM94.8885 54.2269C94.8225 54.2726 94.7326 54.2625 94.6783 54.2029L94.5562 54.0681C94.4732 53.9766 94.4227 53.8605 94.4123 53.7374L94.4035 53.6317C94.3987 53.5759 94.4328 53.5241 94.4858 53.5061L94.9005 53.3648C94.9607 53.3443 95.0267 53.3736 95.0519 53.432L95.0904 53.5213C95.1993 53.7747 95.115 54.0697 94.8885 54.2269Z" fill="#1A1A1A"/>
<path d="M87.6625 52.3106C87.7319 52.2582 87.7458 52.1591 87.6934 52.0897C87.6411 52.0203 87.5423 52.0067 87.4722 52.0584C86.9213 52.4737 86.2807 52.7195 85.9475 52.8287C85.4925 52.9783 85.1201 53.2733 84.8999 53.6598C84.6677 54.0669 84.6178 54.5206 84.7522 55.0075C84.7715 55.0776 84.8349 55.1233 84.904 55.1233C84.9179 55.1233 84.9321 55.1214 84.946 55.1177C85.0299 55.0943 85.0791 55.0075 85.0561 54.9236C84.945 54.5203 84.9845 54.1477 85.1738 53.816C85.3555 53.4973 85.6654 53.2534 86.046 53.1278C86.3978 53.013 87.075 52.7533 87.6625 52.3106Z" fill="#1A1A1A"/>
<path d="M91.9057 45.2852C91.9969 45.466 92.1613 45.6008 92.3566 45.6554C92.42 45.673 92.4853 45.6819 92.5503 45.6819C92.6848 45.6819 92.8182 45.6443 92.9337 45.5721C93.0672 45.4888 93.1808 45.3739 93.2632 45.2392L93.7425 44.4525C93.8801 44.2269 94.1186 44.06 94.3972 43.9943C94.6819 43.9274 94.9797 43.9722 95.2126 44.118C95.2871 44.1644 95.384 44.142 95.43 44.0682C95.4761 43.9943 95.4537 43.8971 95.3802 43.8508C95.076 43.6602 94.692 43.6005 94.3244 43.6873C93.9643 43.7725 93.6541 43.9915 93.473 44.2884L92.9937 45.0751C92.9369 45.1678 92.8583 45.247 92.7665 45.3048C92.6684 45.366 92.5532 45.383 92.4412 45.3515C92.3295 45.3203 92.2392 45.2464 92.1872 45.1426L92.1206 45.011C92.0814 44.9334 91.9858 44.9025 91.9085 44.9416C91.8306 44.981 91.7993 45.076 91.8388 45.1536L91.9057 45.2852Z" fill="#1A1A1A"/>
<path d="M86.4923 45.1107C86.7548 44.8782 87.0757 44.7204 87.4197 44.6544C87.4538 44.6478 87.4888 44.6424 87.5244 44.638C88.1533 44.5579 88.7469 44.7677 89.1277 45.2158C89.2988 45.4193 89.5484 45.5351 89.8137 45.5351C89.8172 45.5351 89.8207 45.5351 89.8245 45.5351C90.0939 45.532 90.3448 45.4099 90.5136 45.1997C90.5682 45.1319 90.5572 45.0325 90.4893 44.9779C90.4215 44.9239 90.3224 44.9343 90.2675 45.0022C90.1583 45.1385 89.9955 45.2177 89.821 45.2196C89.6509 45.2357 89.4821 45.1464 89.3537 44.994C88.9185 44.4818 88.2221 44.2335 87.485 44.325C87.443 44.3304 87.4014 44.3367 87.3607 44.3446C86.9606 44.4212 86.5879 44.6046 86.2831 44.8744C86.2178 44.9321 86.2118 45.0318 86.2695 45.0971C86.3276 45.1625 86.4273 45.1685 86.4923 45.1107Z" fill="#1A1A1A"/>
<path d="M97.0715 51.606C96.7222 51.5864 96.0399 51.5148 95.3997 51.2554C95.3192 51.2229 95.2268 51.2617 95.1943 51.3425C95.1615 51.4233 95.2009 51.5151 95.2814 51.5479C95.9636 51.824 96.6846 51.9 97.0535 51.9209C97.4542 51.9436 97.8162 52.0995 98.0736 52.3604C98.3422 52.6321 98.4763 52.9821 98.4734 53.4002C98.4728 53.4872 98.5429 53.5586 98.63 53.5592C98.6303 53.5592 98.6309 53.5592 98.6312 53.5592C98.7177 53.5592 98.7884 53.4891 98.789 53.4027C98.7928 52.8975 98.6274 52.4724 98.298 52.1386C97.9859 51.8221 97.5502 51.6331 97.0715 51.606Z" fill="#1A1A1A"/>
<path d="M92.6297 47.7178C92.6297 48.7565 93.4748 49.6013 94.5132 49.6013C95.5517 49.6013 96.3967 48.7562 96.3967 47.7178C96.3967 46.6793 95.5517 45.8343 94.5132 45.8343C93.4748 45.8343 92.6297 46.6793 92.6297 47.7178ZM96.0812 47.7178C96.0812 48.5824 95.3778 49.2857 94.5132 49.2857C93.6486 49.2857 92.9453 48.5824 92.9453 47.7178C92.9453 46.8532 93.6486 46.1498 94.5132 46.1498C95.3778 46.1498 96.0812 46.8532 96.0812 47.7178Z" fill="#1A1A1A"/>
<path d="M93.7149 47.7178C93.7149 48.1586 94.0724 48.5161 94.5132 48.5161C94.9541 48.5161 95.3116 48.1586 95.3116 47.7178C95.3116 47.2769 94.9541 46.9194 94.5132 46.9194C94.0724 46.9194 93.7149 47.2769 93.7149 47.7178ZM94.3504 48.2286C94.2788 48.2286 94.2207 48.1706 94.2207 48.099C94.2207 48.0273 94.2788 47.9693 94.3504 47.9693C94.422 47.9693 94.4801 48.0273 94.4801 48.099C94.4801 48.1706 94.422 48.2286 94.3504 48.2286ZM94.7448 47.2375C94.8468 47.2375 94.9294 47.3202 94.9294 47.4221C94.9294 47.524 94.8468 47.6067 94.7448 47.6067C94.6429 47.6067 94.5603 47.524 94.5603 47.4221C94.5603 47.3202 94.6429 47.2375 94.7448 47.2375Z" fill="#1A1A1A"/>
<path d="M87.8868 49.6016C88.9255 49.6016 89.7703 48.7566 89.7703 47.7181C89.7703 46.6796 88.9252 45.8346 87.8868 45.8346C86.8483 45.8346 86.0033 46.6796 86.0033 47.7181C86.0033 48.7566 86.848 49.6016 87.8868 49.6016ZM87.8868 46.1498C88.7514 46.1498 89.4547 46.8532 89.4547 47.7178C89.4547 48.5824 88.7514 49.2857 87.8868 49.2857C87.0222 49.2857 86.3188 48.5824 86.3188 47.7178C86.3188 46.8532 87.0222 46.1498 87.8868 46.1498Z" fill="#1A1A1A"/>
<path d="M87.8868 48.5161C88.3276 48.5161 88.6851 48.1586 88.6851 47.7178C88.6851 47.2769 88.3276 46.9194 87.8868 46.9194C87.446 46.9194 87.0884 47.2769 87.0884 47.7178C87.0884 48.1586 87.446 48.5161 87.8868 48.5161ZM88.1184 47.2375C88.2203 47.2375 88.303 47.3202 88.303 47.4221C88.303 47.524 88.2203 47.6067 88.1184 47.6067C88.0165 47.6067 87.9338 47.524 87.9338 47.4221C87.9338 47.3202 88.0165 47.2375 88.1184 47.2375ZM87.724 47.9696C87.7956 47.9696 87.8536 48.0276 87.8536 48.0993C87.8536 48.1709 87.7956 48.229 87.724 48.229C87.6523 48.229 87.5943 48.1709 87.5943 48.0993C87.5943 48.0276 87.6526 47.9696 87.724 47.9696Z" fill="#1A1A1A"/>
<defs>
<filter id="filter0_d" x="54" y="24" width="64" height="64" filterUnits="userSpaceOnUse" color-interpolation-filters="sRGB">
<feFlood flood-opacity="0" result="BackgroundImageFix"/>
<feColorMatrix in="SourceAlpha" type="matrix" values="0 0 0 0 0 0 0 0 0 0 0 0 0 0 0 0 0 0 127 0"/>
<feOffset dy="4"/>
<feGaussianBlur stdDeviation="2"/>
<feColorMatrix type="matrix" values="0 0 0 0 0 0 0 0 0 0 0 0 0 0 0 0 0 0 0.25 0"/>
<feBlend mode="normal" in2="BackgroundImageFix" result="effect1_dropShadow"/>
<feBlend mode="normal" in="SourceGraphic" in2="effect1_dropShadow" result="shape"/>
</filter>
</defs>
</svg>
