<svg width="381" height="81" viewBox="0 0 381 81" fill="none" xmlns="http://www.w3.org/2000/svg">
<g filter="url(#filter0_dd)">
<path d="M44.3438 26.4688H29.8125V64H17.8125V26.4688H3.28125V17.4688H44.3438V26.4688ZM76.375 39.625H75.375C74.8958 39.4583 74.125 39.3333 73.0625 39.25C72 39.1667 71.1146 39.125 70.4062 39.125C68.8021 39.125 67.3854 39.2292 66.1562 39.4375C64.9271 39.6458 63.6042 40 62.1875 40.5V64H50.9375V28.9062H62.1875V34.0625C64.6667 31.9375 66.8229 30.5312 68.6562 29.8438C70.4896 29.1354 72.1771 28.7812 73.7188 28.7812C74.1146 28.7812 74.5625 28.7917 75.0625 28.8125C75.5625 28.8333 76 28.8646 76.375 28.9062V39.625ZM137.75 64H126.5V15.375H137.75V64ZM159.625 64H148.375V15.375H159.625V64ZM226.094 26.4688H204.688V35.125H224.531V44.125H204.688V64H192.75V17.4688H226.094V26.4688ZM245 64H233.75V28.9062H245V64ZM245.312 23.9062H233.438V15.375H245.312V23.9062ZM290.875 64H279.562V46.5938C279.562 45.1771 279.49 43.7708 279.344 42.375C279.198 40.9583 278.948 39.9167 278.594 39.25C278.177 38.4792 277.562 37.9167 276.75 37.5625C275.958 37.2083 274.844 37.0312 273.406 37.0312C272.385 37.0312 271.344 37.1979 270.281 37.5312C269.24 37.8646 268.104 38.3958 266.875 39.125V64H255.625V28.9062H266.875V32.7812C268.875 31.2188 270.792 30.0208 272.625 29.1875C274.479 28.3542 276.531 27.9375 278.781 27.9375C282.573 27.9375 285.531 29.0417 287.656 31.25C289.802 33.4583 290.875 36.7604 290.875 41.1562V64ZM335.375 64H324.125V60.3438C322.188 61.9271 320.375 63.0938 318.688 63.8438C317 64.5938 315.052 64.9688 312.844 64.9688C308.573 64.9688 305.156 63.3229 302.594 60.0312C300.031 56.7396 298.75 52.3021 298.75 46.7188C298.75 43.7396 299.177 41.1042 300.031 38.8125C300.906 36.5 302.094 34.5208 303.594 32.875C305.01 31.3125 306.729 30.1042 308.75 29.25C310.771 28.375 312.792 27.9375 314.812 27.9375C316.917 27.9375 318.635 28.1667 319.969 28.625C321.323 29.0625 322.708 29.625 324.125 30.3125V15.375H335.375V64ZM324.125 54.3125V37.0938C323.333 36.7604 322.5 36.5208 321.625 36.375C320.75 36.2292 319.948 36.1562 319.219 36.1562C316.26 36.1562 314.042 37.0833 312.562 38.9375C311.083 40.7708 310.344 43.3229 310.344 46.5938C310.344 50.0312 310.938 52.5312 312.125 54.0938C313.312 55.6354 315.219 56.4062 317.844 56.4062C318.865 56.4062 319.948 56.2188 321.094 55.8438C322.24 55.4479 323.25 54.9375 324.125 54.3125ZM371.438 39.625H370.438C369.958 39.4583 369.188 39.3333 368.125 39.25C367.062 39.1667 366.177 39.125 365.469 39.125C363.865 39.125 362.448 39.2292 361.219 39.4375C359.99 39.6458 358.667 40 357.25 40.5V64H346V28.9062H357.25V34.0625C359.729 31.9375 361.885 30.5312 363.719 29.8438C365.552 29.1354 367.24 28.7812 368.781 28.7812C369.177 28.7812 369.625 28.7917 370.125 28.8125C370.625 28.8333 371.062 28.8646 371.438 28.9062V39.625Z" fill="#1A1A1A"/>
<path d="M44.3438 26.4688V27.9688C45.1722 27.9688 45.8438 27.2972 45.8438 26.4688H44.3438ZM29.8125 26.4688V24.9688C28.9841 24.9688 28.3125 25.6403 28.3125 26.4688H29.8125ZM29.8125 64V65.5C30.6409 65.5 31.3125 64.8284 31.3125 64H29.8125ZM17.8125 64H16.3125C16.3125 64.8284 16.9841 65.5 17.8125 65.5V64ZM17.8125 26.4688H19.3125C19.3125 25.6403 18.6409 24.9688 17.8125 24.9688V26.4688ZM3.28125 26.4688H1.78125C1.78125 27.2972 2.45282 27.9688 3.28125 27.9688L3.28125 26.4688ZM3.28125 17.4688V15.9688C2.45282 15.9688 1.78125 16.6403 1.78125 17.4688H3.28125ZM44.3438 17.4688H45.8438C45.8438 16.6403 45.1722 15.9688 44.3438 15.9688V17.4688ZM44.3438 24.9688H29.8125V27.9688H44.3438V24.9688ZM28.3125 26.4688V64H31.3125V26.4688H28.3125ZM29.8125 62.5H17.8125V65.5H29.8125V62.5ZM19.3125 64V26.4688H16.3125V64H19.3125ZM17.8125 24.9688H3.28125V27.9688H17.8125V24.9688ZM4.78125 26.4688V17.4688H1.78125V26.4688H4.78125ZM3.28125 18.9688H44.3438V15.9688H3.28125V18.9688ZM42.8438 17.4688V26.4688H45.8438V17.4688H42.8438ZM76.375 39.625V41.125C77.2034 41.125 77.875 40.4534 77.875 39.625H76.375ZM75.375 39.625L74.8822 41.0417C75.0407 41.0969 75.2072 41.125 75.375 41.125V39.625ZM62.1875 40.5L61.6883 39.0855C61.0886 39.2972 60.6875 39.864 60.6875 40.5H62.1875ZM62.1875 64V65.5C63.0159 65.5 63.6875 64.8284 63.6875 64H62.1875ZM50.9375 64H49.4375C49.4375 64.8284 50.1091 65.5 50.9375 65.5V64ZM50.9375 28.9062V27.4062C50.1091 27.4062 49.4375 28.0778 49.4375 28.9062H50.9375ZM62.1875 28.9062H63.6875C63.6875 28.0778 63.0159 27.4062 62.1875 27.4062V28.9062ZM62.1875 34.0625H60.6875C60.6875 34.6483 61.0285 35.1805 61.5607 35.4253C62.0929 35.67 62.7189 35.5826 63.1637 35.2014L62.1875 34.0625ZM68.6562 29.8438L69.1829 31.2482C69.1876 31.2465 69.1922 31.2447 69.1968 31.2429L68.6562 29.8438ZM76.375 28.9062H77.875C77.875 28.1419 77.3003 27.4998 76.5406 27.4154L76.375 28.9062ZM76.375 38.125H75.375V41.125H76.375V38.125ZM75.8678 38.2083C75.1957 37.9745 74.2621 37.8395 73.1798 37.7546L72.9452 40.7454C73.9879 40.8272 74.596 40.9422 74.8822 41.0417L75.8678 38.2083ZM73.1798 37.7546C72.0956 37.6696 71.1679 37.625 70.4062 37.625V40.625C71.0612 40.625 71.9044 40.6638 72.9452 40.7454L73.1798 37.7546ZM70.4062 37.625C68.7406 37.625 67.2371 37.7329 65.9056 37.9586L66.4069 40.9164C67.5337 40.7254 68.8636 40.625 70.4062 40.625V37.625ZM65.9056 37.9586C64.5768 38.1838 63.17 38.5626 61.6883 39.0855L62.6867 41.9145C64.0384 41.4374 65.2774 41.1079 66.4069 40.9164L65.9056 37.9586ZM60.6875 40.5V64H63.6875V40.5H60.6875ZM62.1875 62.5H50.9375V65.5H62.1875V62.5ZM52.4375 64V28.9062H49.4375V64H52.4375ZM50.9375 30.4062H62.1875V27.4062H50.9375V30.4062ZM60.6875 28.9062V34.0625H63.6875V28.9062H60.6875ZM63.1637 35.2014C65.5864 33.1248 67.5873 31.8466 69.1829 31.2482L68.1296 28.4393C66.0585 29.2159 63.747 30.7502 61.2113 32.9236L63.1637 35.2014ZM69.1968 31.2429C70.9031 30.5837 72.405 30.2812 73.7188 30.2812V27.2812C71.9492 27.2812 70.0761 27.6871 68.1157 28.4446L69.1968 31.2429ZM73.7188 30.2812C74.0892 30.2812 74.5157 30.291 75.0001 30.3112L75.1249 27.3138C74.6093 27.2923 74.14 27.2812 73.7188 27.2812V30.2812ZM75.0001 30.3112C75.4759 30.331 75.8776 30.3602 76.2094 30.3971L76.5406 27.4154C76.1224 27.369 75.6491 27.3356 75.1249 27.3138L75.0001 30.3112ZM74.875 28.9062V39.625H77.875V28.9062H74.875ZM137.75 64V65.5C138.578 65.5 139.25 64.8284 139.25 64H137.75ZM126.5 64H125C125 64.8284 125.672 65.5 126.5 65.5V64ZM126.5 15.375V13.875C125.672 13.875 125 14.5466 125 15.375H126.5ZM137.75 15.375H139.25C139.25 14.5466 138.578 13.875 137.75 13.875V15.375ZM137.75 62.5H126.5V65.5H137.75V62.5ZM128 64V15.375H125V64H128ZM126.5 16.875H137.75V13.875H126.5V16.875ZM136.25 15.375V64H139.25V15.375H136.25ZM159.625 64V65.5C160.453 65.5 161.125 64.8284 161.125 64H159.625ZM148.375 64H146.875C146.875 64.8284 147.547 65.5 148.375 65.5V64ZM148.375 15.375V13.875C147.547 13.875 146.875 14.5466 146.875 15.375H148.375ZM159.625 15.375H161.125C161.125 14.5466 160.453 13.875 159.625 13.875V15.375ZM159.625 62.5H148.375V65.5H159.625V62.5ZM149.875 64V15.375H146.875V64H149.875ZM148.375 16.875H159.625V13.875H148.375V16.875ZM158.125 15.375V64H161.125V15.375H158.125ZM226.094 26.4688V27.9688C226.922 27.9688 227.594 27.2972 227.594 26.4688H226.094ZM204.688 26.4688V24.9688C203.859 24.9688 203.188 25.6403 203.188 26.4688H204.688ZM204.688 35.125H203.188C203.188 35.9534 203.859 36.625 204.688 36.625V35.125ZM224.531 35.125H226.031C226.031 34.2966 225.36 33.625 224.531 33.625V35.125ZM224.531 44.125V45.625C225.36 45.625 226.031 44.9534 226.031 44.125H224.531ZM204.688 44.125V42.625C203.859 42.625 203.188 43.2966 203.188 44.125H204.688ZM204.688 64V65.5C205.516 65.5 206.188 64.8284 206.188 64H204.688ZM192.75 64H191.25C191.25 64.8284 191.922 65.5 192.75 65.5V64ZM192.75 17.4688V15.9688C191.922 15.9688 191.25 16.6403 191.25 17.4688H192.75ZM226.094 17.4688H227.594C227.594 16.6403 226.922 15.9688 226.094 15.9688V17.4688ZM226.094 24.9688H204.688V27.9688H226.094V24.9688ZM203.188 26.4688V35.125H206.188V26.4688H203.188ZM204.688 36.625H224.531V33.625H204.688V36.625ZM223.031 35.125V44.125H226.031V35.125H223.031ZM224.531 42.625H204.688V45.625H224.531V42.625ZM203.188 44.125V64H206.188V44.125H203.188ZM204.688 62.5H192.75V65.5H204.688V62.5ZM194.25 64V17.4688H191.25V64H194.25ZM192.75 18.9688H226.094V15.9688H192.75V18.9688ZM224.594 17.4688V26.4688H227.594V17.4688H224.594ZM245 64V65.5C245.828 65.5 246.5 64.8284 246.5 64H245ZM233.75 64H232.25C232.25 64.8284 232.922 65.5 233.75 65.5V64ZM233.75 28.9062V27.4062C232.922 27.4062 232.25 28.0778 232.25 28.9062H233.75ZM245 28.9062H246.5C246.5 28.0778 245.828 27.4062 245 27.4062V28.9062ZM245.312 23.9062V25.4062C246.141 25.4062 246.812 24.7347 246.812 23.9062H245.312ZM233.438 23.9062H231.938C231.938 24.7347 232.609 25.4062 233.438 25.4062V23.9062ZM233.438 15.375V13.875C232.609 13.875 231.938 14.5466 231.938 15.375H233.438ZM245.312 15.375H246.812C246.812 14.5466 246.141 13.875 245.312 13.875V15.375ZM245 62.5H233.75V65.5H245V62.5ZM235.25 64V28.9062H232.25V64H235.25ZM233.75 30.4062H245V27.4062H233.75V30.4062ZM243.5 28.9062V64H246.5V28.9062H243.5ZM245.312 22.4062H233.438V25.4062H245.312V22.4062ZM234.938 23.9062V15.375H231.938V23.9062H234.938ZM233.438 16.875H245.312V13.875H233.438V16.875ZM243.812 15.375V23.9062H246.812V15.375H243.812ZM290.875 64V65.5C291.703 65.5 292.375 64.8284 292.375 64H290.875ZM279.562 64H278.062C278.062 64.8284 278.734 65.5 279.562 65.5V64ZM279.344 42.375L277.852 42.5286L277.852 42.5309L279.344 42.375ZM278.594 39.25L279.918 38.5462L279.913 38.5367L278.594 39.25ZM276.75 37.5625L276.137 38.9317C276.142 38.9337 276.146 38.9356 276.151 38.9375L276.75 37.5625ZM270.281 37.5312L269.832 36.1L269.824 36.1026L270.281 37.5312ZM266.875 39.125L266.11 37.8349C265.654 38.1051 265.375 38.5954 265.375 39.125H266.875ZM266.875 64V65.5C267.703 65.5 268.375 64.8284 268.375 64H266.875ZM255.625 64H254.125C254.125 64.8284 254.797 65.5 255.625 65.5V64ZM255.625 28.9062V27.4062C254.797 27.4062 254.125 28.0778 254.125 28.9062H255.625ZM266.875 28.9062H268.375C268.375 28.0778 267.703 27.4062 266.875 27.4062V28.9062ZM266.875 32.7812H265.375C265.375 33.3547 265.702 33.878 266.217 34.1294C266.733 34.3808 267.347 34.3163 267.798 33.9633L266.875 32.7812ZM272.625 29.1875L272.01 27.8193L272.004 27.822L272.625 29.1875ZM287.656 31.25L286.575 32.2901L286.58 32.2953L287.656 31.25ZM290.875 62.5H279.562V65.5H290.875V62.5ZM281.062 64V46.5938H278.062V64H281.062ZM281.062 46.5938C281.062 45.1255 280.987 43.6672 280.836 42.2191L277.852 42.5309C277.992 43.8744 278.062 45.2287 278.062 46.5938H281.062ZM280.836 42.2214C280.685 40.7523 280.412 39.475 279.918 38.5463L277.269 39.9537C277.484 40.3583 277.711 41.1644 277.852 42.5286L280.836 42.2214ZM279.913 38.5367C279.335 37.4674 278.465 36.6739 277.349 36.1875L276.151 38.9375C276.66 39.1595 277.019 39.491 277.274 39.9633L279.913 38.5367ZM277.363 36.1933C276.292 35.7143 274.934 35.5312 273.406 35.5312V38.5312C274.754 38.5312 275.625 38.7024 276.137 38.9317L277.363 36.1933ZM273.406 35.5312C272.22 35.5312 271.027 35.7252 269.832 36.1L270.73 38.9625C271.661 38.6706 272.551 38.5312 273.406 38.5312V35.5312ZM269.824 36.1026C268.648 36.479 267.408 37.0646 266.11 37.8349L267.64 40.4151C268.8 39.7271 269.831 39.2502 270.738 38.9599L269.824 36.1026ZM265.375 39.125V64H268.375V39.125H265.375ZM266.875 62.5H255.625V65.5H266.875V62.5ZM257.125 64V28.9062H254.125V64H257.125ZM255.625 30.4062H266.875V27.4062H255.625V30.4062ZM265.375 28.9062V32.7812H268.375V28.9062H265.375ZM267.798 33.9633C269.728 32.4558 271.544 31.3266 273.246 30.553L272.004 27.822C270.04 28.715 268.022 29.9817 265.952 31.5992L267.798 33.9633ZM273.24 30.5557C274.881 29.8181 276.72 29.4375 278.781 29.4375V26.4375C276.342 26.4375 274.077 26.8902 272.01 27.8193L273.24 30.5557ZM278.781 29.4375C282.268 29.4375 284.798 30.4425 286.575 32.2901L288.737 30.2099C286.265 27.6409 282.878 26.4375 278.781 26.4375V29.4375ZM286.58 32.2953C288.356 34.123 289.375 36.9834 289.375 41.1562H292.375C292.375 36.5375 291.248 32.7936 288.732 30.2047L286.58 32.2953ZM289.375 41.1562V64H292.375V41.1562H289.375ZM335.375 64V65.5C336.203 65.5 336.875 64.8284 336.875 64H335.375ZM324.125 64H322.625C322.625 64.8284 323.297 65.5 324.125 65.5V64ZM324.125 60.3438H325.625C325.625 59.7643 325.291 59.2367 324.768 58.9884C324.244 58.7402 323.624 58.8156 323.176 59.1823L324.125 60.3438ZM300.031 38.8125L298.628 38.2817L298.626 38.2886L300.031 38.8125ZM303.594 32.875L304.702 33.8854L304.705 33.8825L303.594 32.875ZM308.75 29.25L309.334 30.6317L309.346 30.6265L308.75 29.25ZM319.969 28.625L319.481 30.0435C319.49 30.0466 319.499 30.0495 319.508 30.0524L319.969 28.625ZM324.125 30.3125L323.47 31.662C323.935 31.8876 324.483 31.858 324.921 31.5838C325.359 31.3095 325.625 30.8292 325.625 30.3125H324.125ZM324.125 15.375V13.875C323.297 13.875 322.625 14.5466 322.625 15.375H324.125ZM335.375 15.375H336.875C336.875 14.5466 336.203 13.875 335.375 13.875V15.375ZM324.125 54.3125L324.997 55.5331C325.391 55.2515 325.625 54.7969 325.625 54.3125H324.125ZM324.125 37.0938H325.625C325.625 36.4902 325.263 35.9455 324.707 35.7113L324.125 37.0938ZM312.562 38.9375L313.73 39.8794L313.735 39.8729L312.562 38.9375ZM312.125 54.0938L310.931 55.0014L310.937 55.0091L312.125 54.0938ZM321.094 55.8438L321.56 57.2693C321.568 57.2668 321.576 57.2642 321.584 57.2615L321.094 55.8438ZM335.375 62.5H324.125V65.5H335.375V62.5ZM325.625 64V60.3438H322.625V64H325.625ZM323.176 59.1823C321.308 60.7088 319.609 61.7926 318.078 62.473L319.297 65.2145C321.141 64.3949 323.067 63.1454 325.074 61.5052L323.176 59.1823ZM318.078 62.473C316.616 63.1228 314.883 63.4688 312.844 63.4688V66.4688C315.222 66.4688 317.384 66.0647 319.297 65.2145L318.078 62.473ZM312.844 63.4688C309.023 63.4688 306.048 62.0264 303.777 59.1098L301.41 60.9527C304.265 64.6195 308.123 66.4688 312.844 66.4688V63.4688ZM303.777 59.1098C301.48 56.1584 300.25 52.0808 300.25 46.7188H297.25C297.25 52.5233 298.583 57.3208 301.41 60.9527L303.777 59.1098ZM300.25 46.7188C300.25 43.8806 300.657 41.4284 301.437 39.3364L298.626 38.2886C297.697 40.78 297.25 43.5985 297.25 46.7188H300.25ZM301.434 39.3433C302.25 37.1883 303.343 35.3767 304.702 33.8854L302.485 31.8646C300.844 33.6649 299.563 35.8117 298.628 38.2817L301.434 39.3433ZM304.705 33.8825C305.969 32.4881 307.506 31.4044 309.334 30.6316L308.166 27.8684C305.953 28.8039 304.052 30.1369 302.482 31.8675L304.705 33.8825ZM309.346 30.6265C311.196 29.8256 313.014 29.4375 314.812 29.4375V26.4375C312.569 26.4375 310.346 26.9244 308.154 27.8735L309.346 30.6265ZM314.812 29.4375C316.824 29.4375 318.362 29.6587 319.481 30.0435L320.456 27.2065C318.909 26.6746 317.009 26.4375 314.812 26.4375V29.4375ZM319.508 30.0524C320.789 30.4663 322.11 31.0017 323.47 31.662L324.78 28.963C323.307 28.2483 321.857 27.6587 320.43 27.1976L319.508 30.0524ZM325.625 30.3125V15.375H322.625V30.3125H325.625ZM324.125 16.875H335.375V13.875H324.125V16.875ZM333.875 15.375V64H336.875V15.375H333.875ZM325.625 54.3125V37.0938H322.625V54.3125H325.625ZM324.707 35.7113C323.804 35.3312 322.858 35.0598 321.872 34.8954L321.378 37.8546C322.142 37.9818 322.862 38.1897 323.543 38.4762L324.707 35.7113ZM321.872 34.8954C320.932 34.7388 320.046 34.6562 319.219 34.6562V37.6562C319.85 37.6562 320.568 37.7195 321.378 37.8546L321.872 34.8954ZM319.219 34.6562C315.928 34.6562 313.223 35.7044 311.39 38.0021L313.735 39.8729C314.86 38.4623 316.593 37.6562 319.219 37.6562V34.6562ZM311.395 37.9956C309.631 40.1827 308.844 43.1117 308.844 46.5938H311.844C311.844 43.5341 312.536 41.359 313.73 39.8794L311.395 37.9956ZM308.844 46.5938C308.844 50.1393 309.444 53.0449 310.931 55.0014L313.319 53.1861C312.431 52.0176 311.844 49.9232 311.844 46.5938H308.844ZM310.937 55.0091C312.5 57.0386 314.928 57.9062 317.844 57.9062V54.9062C315.51 54.9062 314.125 54.2322 313.313 53.1784L310.937 55.0091ZM317.844 57.9062C319.049 57.9062 320.29 57.685 321.56 57.2693L320.627 54.4182C319.605 54.7525 318.68 54.9062 317.844 54.9062V57.9062ZM321.584 57.2615C322.848 56.8246 323.991 56.2517 324.997 55.5331L323.253 53.0919C322.509 53.6233 321.631 54.0713 320.604 54.426L321.584 57.2615ZM371.438 39.625V41.125C372.266 41.125 372.938 40.4534 372.938 39.625H371.438ZM370.438 39.625L369.945 41.0417C370.103 41.0969 370.27 41.125 370.438 41.125V39.625ZM357.25 40.5L356.751 39.0855C356.151 39.2972 355.75 39.864 355.75 40.5H357.25ZM357.25 64V65.5C358.078 65.5 358.75 64.8284 358.75 64H357.25ZM346 64H344.5C344.5 64.8284 345.172 65.5 346 65.5V64ZM346 28.9062V27.4062C345.172 27.4062 344.5 28.0778 344.5 28.9062H346ZM357.25 28.9062H358.75C358.75 28.0778 358.078 27.4062 357.25 27.4062V28.9062ZM357.25 34.0625H355.75C355.75 34.6483 356.091 35.1805 356.623 35.4253C357.155 35.67 357.781 35.5826 358.226 35.2014L357.25 34.0625ZM363.719 29.8438L364.245 31.2482C364.25 31.2465 364.255 31.2447 364.259 31.2429L363.719 29.8438ZM371.438 28.9062H372.938C372.938 28.1419 372.363 27.4998 371.603 27.4154L371.438 28.9062ZM371.438 38.125H370.438V41.125H371.438V38.125ZM370.93 38.2083C370.258 37.9745 369.325 37.8395 368.242 37.7546L368.008 40.7454C369.05 40.8272 369.658 40.9422 369.945 41.0417L370.93 38.2083ZM368.242 37.7546C367.158 37.6696 366.23 37.625 365.469 37.625V40.625C366.124 40.625 366.967 40.6638 368.008 40.7454L368.242 37.7546ZM365.469 37.625C363.803 37.625 362.3 37.7329 360.968 37.9586L361.469 40.9164C362.596 40.7254 363.926 40.625 365.469 40.625V37.625ZM360.968 37.9586C359.639 38.1838 358.232 38.5626 356.751 39.0855L357.749 41.9145C359.101 41.4374 360.34 41.1079 361.469 40.9164L360.968 37.9586ZM355.75 40.5V64H358.75V40.5H355.75ZM357.25 62.5H346V65.5H357.25V62.5ZM347.5 64V28.9062H344.5V64H347.5ZM346 30.4062H357.25V27.4062H346V30.4062ZM355.75 28.9062V34.0625H358.75V28.9062H355.75ZM358.226 35.2014C360.649 33.1248 362.65 31.8466 364.245 31.2482L363.192 28.4393C361.121 29.2159 358.809 30.7502 356.274 32.9236L358.226 35.2014ZM364.259 31.2429C365.966 30.5837 367.468 30.2812 368.781 30.2812V27.2812C367.012 27.2812 365.139 27.6871 363.178 28.4446L364.259 31.2429ZM368.781 30.2812C369.152 30.2812 369.578 30.291 370.063 30.3112L370.187 27.3138C369.672 27.2923 369.202 27.2812 368.781 27.2812V30.2812ZM370.063 30.3112C370.538 30.331 370.94 30.3602 371.272 30.3971L371.603 27.4154C371.185 27.369 370.712 27.3356 370.187 27.3138L370.063 30.3112ZM369.938 28.9062V39.625H372.938V28.9062H369.938Z" fill="#1A1A1A"/>
</g>
<g filter="url(#filter1_d)">
<ellipse cx="101.764" cy="39.3111" rx="17.8578" ry="17.8578" fill="white"/>
<path fill-rule="evenodd" clip-rule="evenodd" d="M79.6172 39.2537C79.6172 27.4004 89.4313 17.7888 101.546 17.7888C113.66 17.7888 123.473 27.4004 123.473 39.2537C123.473 51.1084 113.661 60.7186 101.546 60.7186C98.1361 60.722 94.7732 59.9437 91.7262 58.446L80.7568 69.1845L80.7301 69.1584C79.6337 70.2531 78.0974 70.9259 76.3795 70.9266C73.0163 70.9272 70.3343 68.3501 70.335 65.0546C70.335 63.3488 71.0318 61.8395 72.1666 60.7763L72.1296 60.7401L82.7611 50.333C80.6983 46.9906 79.611 43.1587 79.6172 39.2537ZM101.764 57.1689C111.627 57.1689 119.622 49.1737 119.622 39.3111C119.622 29.4485 111.627 21.4533 101.764 21.4533C91.9019 21.4533 83.9067 29.4485 83.9067 39.3111C83.9067 49.1737 91.9019 57.1689 101.764 57.1689Z" fill="#5BC0EB"/>
</g>
<path d="M101.733 21.2667C91.6979 21.2667 83.5333 29.4312 83.5333 39.4667C83.5333 49.5025 91.6979 57.6667 101.733 57.6667C111.769 57.6667 119.933 49.5021 119.933 39.4667C119.933 29.4312 111.769 21.2667 101.733 21.2667ZM101.733 56.1941C92.5096 56.1941 85.0059 48.6904 85.0059 39.4667C85.0059 30.243 92.5096 22.7392 101.733 22.7392C110.957 22.7392 118.461 30.243 118.461 39.4667C118.461 48.6904 110.957 56.1941 101.733 56.1941Z" fill="#1A1A1A"/>
<path d="M99.3177 41.9185C99.2618 42.3864 99.5769 42.8325 100.072 42.9632C100.414 43.0531 100.688 43.3045 100.805 43.6358C100.912 43.941 101.088 44.2267 101.329 44.4847C101.432 44.5956 101.58 44.6592 101.733 44.6592C101.887 44.6592 102.035 44.5956 102.138 44.4847C102.378 44.227 102.554 43.941 102.662 43.6358C102.779 43.3045 103.053 43.0531 103.416 42.9573C103.89 42.8325 104.205 42.386 104.149 41.9185C104.022 40.8612 103.076 40.5652 102.593 40.5567C102.493 40.5641 102.408 40.6359 102.406 40.7375C102.404 40.8387 102.485 40.923 102.587 40.9249C102.631 40.9256 103.662 40.9558 103.783 41.9623C103.817 42.2483 103.619 42.5229 103.301 42.6072C102.841 42.728 102.472 43.0667 102.314 43.5136C102.224 43.7706 102.074 44.0128 101.868 44.2337C101.8 44.3062 101.665 44.3062 101.598 44.2337C101.393 44.0128 101.242 43.7706 101.152 43.5136C100.994 43.0667 100.625 42.728 100.144 42.6013C99.8471 42.5229 99.6487 42.2483 99.6833 41.9623C99.8033 40.962 100.836 40.926 100.88 40.9249C100.982 40.9223 101.062 40.8383 101.06 40.7367C101.058 40.6355 100.97 40.5556 100.873 40.5567C100.391 40.5652 99.4451 40.8612 99.3177 41.9185Z" fill="#1A1A1A"/>
<path d="M104.134 51.1263C103.646 51.6137 102.725 51.8773 102.22 51.9911C101.897 52.0636 101.569 52.064 101.246 51.9907C100.741 51.8773 99.8197 51.6141 99.3322 51.1263C99.2605 51.0545 99.1438 51.0545 99.072 51.1263C99.0002 51.1981 99.0002 51.3148 99.072 51.3866C99.5973 51.9123 100.501 52.2005 101.166 52.3496C101.354 52.3923 101.543 52.4137 101.733 52.4137C101.923 52.4137 102.112 52.3923 102.301 52.35C102.966 52.2005 103.869 51.9123 104.395 51.3866C104.466 51.3148 104.466 51.1981 104.395 51.1263C104.323 51.0545 104.206 51.0545 104.134 51.1263Z" fill="#1A1A1A"/>
<path d="M110.142 35.902C110.243 35.8968 110.321 35.8103 110.316 35.7091C110.295 35.2824 110.413 34.9099 110.667 34.6021C110.718 34.5395 110.784 34.5553 110.81 34.5638C110.832 34.5715 110.902 34.6039 110.902 34.693C110.902 35.387 111.051 36.075 111.346 36.738C111.582 37.27 111.686 37.7718 111.653 38.2224C111.652 38.229 111.571 38.9027 111.043 39.3161C110.964 39.3787 110.95 39.4943 111.012 39.5745C111.049 39.6209 111.102 39.6452 111.157 39.6452C111.197 39.6452 111.237 39.6323 111.271 39.6062C111.919 39.0985 112.015 38.2971 112.02 38.2562C112.057 37.7379 111.944 37.1769 111.683 36.5889C111.409 35.9738 111.271 35.3358 111.271 34.6938C111.271 34.4784 111.139 34.2914 110.935 34.2181C110.735 34.1467 110.518 34.2049 110.383 34.3683C110.073 34.7438 109.923 35.2139 109.949 35.7279C109.953 35.8287 110.031 35.9097 110.142 35.902Z" fill="#1A1A1A"/>
<path d="M92.1962 39.6054C92.2297 39.632 92.2698 39.6445 92.3096 39.6445C92.364 39.6445 92.4182 39.6202 92.4546 39.5738C92.5172 39.4939 92.5032 39.3779 92.4233 39.3154C91.8995 38.9052 91.8148 38.2286 91.8148 38.2286C91.7736 37.658 91.9587 37.1025 92.1214 36.7373C92.4156 36.0754 92.565 35.3873 92.565 34.6923C92.565 34.6032 92.6354 34.5708 92.6571 34.5631C92.6832 34.5539 92.7491 34.5384 92.8007 34.6013C93.0547 34.9091 93.1725 35.2817 93.1511 35.7083C93.146 35.8099 93.2244 35.8965 93.326 35.9012C93.4235 35.9079 93.5137 35.828 93.5189 35.7264C93.5443 35.2125 93.3945 34.742 93.0845 34.3665C92.9494 34.2034 92.7322 34.1449 92.5327 34.2163C92.3287 34.2895 92.1969 34.4762 92.1969 34.6919C92.1969 35.335 92.0585 35.9727 91.785 36.5871C91.524 37.1743 91.4102 37.7353 91.4485 38.2614C91.4518 38.2963 91.5475 39.0978 92.1962 39.6054Z" fill="#1A1A1A"/>
<path d="M115.272 42.8653C114.729 42.2159 113.954 42.1047 113.591 42.0904C113.519 42.0874 113.496 41.9958 113.554 41.9527C113.961 41.6493 114.406 41.6022 114.676 41.6081C114.753 41.61 114.789 41.5128 114.729 41.4649C113.964 40.8538 113.264 40.6822 112.744 40.6657C113.039 40.4131 113.269 40.1153 113.424 39.7671C114.145 38.1495 113.111 35.9395 112.634 35.0645C112.456 34.7379 112.353 34.2892 112.331 33.73C112.311 33.2286 112.01 32.8045 111.546 32.6237C111.092 32.4463 110.594 32.5516 110.248 32.8987C109.571 33.5761 109.133 34.1294 108.925 34.4088C107.698 31.5642 105.604 30.3247 103.985 29.7861C104.534 27.5699 103.694 26.2652 103.32 25.8279C103.27 25.7694 103.183 25.8253 103.202 25.9026C103.556 27.3656 103.36 28.3187 103.218 28.7469C103.197 28.8094 103.109 28.7951 103.106 28.7288C103.042 27.398 102.392 26.7608 102.049 26.5148C101.923 26.4243 101.877 26.4659 101.933 26.6172C102.272 27.5268 102.22 28.3036 102.179 28.607C102.169 28.6828 102.118 28.699 102.069 28.6427C101.101 27.5158 101.042 25.7127 101.054 25.082C101.055 25.0209 100.978 24.9999 100.949 25.0526C100.114 26.5851 100.54 27.8858 100.706 28.3364C100.729 28.3982 100.665 28.4531 100.611 28.4203C100.049 28.0805 99.6673 27.1631 99.5076 26.7122C99.4807 26.6363 99.3776 26.6444 99.3636 26.7247C99.2686 27.2644 99.1729 28.5197 100.001 29.626C98.349 30.0604 95.9094 31.2358 94.5421 34.4088C94.3338 34.1298 93.896 33.5765 93.219 32.8987C92.8726 32.5516 92.3749 32.4459 91.9203 32.6237C91.4568 32.8048 91.1564 33.2286 91.1361 33.73C91.1133 34.2892 91.0113 34.7379 90.8331 35.0645C90.3553 35.9392 89.3219 38.1487 90.0424 39.7667C90.1977 40.1153 90.4278 40.4131 90.7227 40.6657C90.2033 40.6822 89.5023 40.8538 88.7381 41.4649C88.6781 41.5131 88.7141 41.61 88.7911 41.6081C89.0609 41.6022 89.5064 41.6493 89.9135 41.9527C89.9713 41.9958 89.9481 42.0874 89.876 42.0904C89.5134 42.1047 88.7384 42.2159 88.1951 42.8653C88.1446 42.9253 88.1936 43.0155 88.2705 43.0004C88.5658 42.9422 89.1069 42.8775 89.5119 43.0696C89.5579 43.0913 89.5701 43.1528 89.5366 43.1911C89.4125 43.3336 89.1044 43.652 88.6287 43.9097C88.5599 43.9469 88.5717 44.0478 88.6486 44.0621C88.9976 44.1269 89.8384 44.1641 90.5228 43.885C90.4727 44.1516 90.4503 44.4269 90.4595 44.7067C90.6229 49.5967 94.784 51.324 96.565 51.8398C97.1519 52.0099 97.7048 52.2484 98.2077 52.5495C98.331 52.6235 98.4735 52.72 98.6336 52.8282C99.1656 53.1883 99.8937 53.6808 100.791 53.9547C101.099 54.0486 101.416 54.0957 101.733 54.0957C102.05 54.0957 102.367 54.0486 102.675 53.9547C103.573 53.6808 104.301 53.1883 104.833 52.8282C104.993 52.7196 105.135 52.6235 105.258 52.5495C105.761 52.2488 106.314 52.0099 106.901 51.8398C108.682 51.324 112.843 49.5963 113.007 44.7067C113.016 44.4266 112.994 44.1516 112.944 43.885C113.628 44.1641 114.469 44.1269 114.818 44.0621C114.895 44.0478 114.907 43.9469 114.838 43.9097C114.362 43.652 114.054 43.3336 113.93 43.1911C113.897 43.1528 113.909 43.0913 113.955 43.0696C114.359 42.8775 114.901 42.9422 115.196 43.0004C115.273 43.0159 115.322 42.9257 115.272 42.8653ZM110.508 33.159C110.753 32.9131 111.091 32.8409 111.412 32.9668C111.738 33.0938 111.949 33.392 111.963 33.7451C111.988 34.361 112.105 34.8646 112.311 35.2408C112.762 36.0676 113.742 38.1498 113.088 39.6172C112.772 40.3259 112.099 40.8111 111.093 41.0633C110.781 40.5777 110.6 40.0354 110.569 39.4733C110.517 38.5353 110.26 37.8277 110.054 37.3992C109.749 36.7653 109.542 36.2414 109.403 35.751C109.309 35.4194 109.202 35.109 109.088 34.8112C109.096 34.799 109.582 34.0852 110.508 33.159ZM90.3785 39.6169C89.7247 38.1491 90.7043 36.0673 91.156 35.2408C91.3618 34.8646 91.4785 34.361 91.5035 33.7451C91.5179 33.392 91.7288 33.0938 92.0539 32.9668C92.3745 32.8417 92.7129 32.9131 92.9584 33.159C93.8839 34.0856 94.3698 34.7994 94.3779 34.8112C94.2642 35.109 94.1574 35.4194 94.0632 35.751C93.924 36.2418 93.7171 36.7653 93.4119 37.3992C93.2058 37.8284 92.9492 38.536 92.8973 39.4737C92.8664 40.0354 92.6849 40.5781 92.3731 41.0633C91.3669 40.8107 90.6944 40.3255 90.3785 39.6169ZM106.799 51.486C106.182 51.6645 105.6 51.9163 105.07 52.2337C104.941 52.3103 104.794 52.41 104.627 52.5227C104.114 52.8695 103.412 53.3444 102.568 53.602C102.022 53.7688 101.445 53.7688 100.899 53.602C100.055 53.3447 99.3526 52.8702 98.8401 52.523C98.6734 52.4104 98.5254 52.3103 98.3969 52.2337C97.8668 51.9163 97.2848 51.6645 96.6678 51.486C91.7362 50.058 90.8917 46.6177 90.8272 44.6946C90.7949 43.7168 91.1759 42.8013 91.875 42.182L91.9077 42.1533C92.7279 41.441 93.2102 40.4967 93.2654 39.4939C93.314 38.617 93.5526 37.9577 93.7444 37.559C94.0588 36.9055 94.2727 36.3629 94.4181 35.8519C95.151 33.2691 96.5978 31.4552 98.7175 30.4605C100.218 29.7567 101.544 29.7353 101.694 29.7353C101.702 29.7353 101.707 29.7353 101.708 29.7353H101.716C101.733 29.7349 103.118 29.7143 104.713 30.4535C106.855 31.4464 108.314 33.2624 109.049 35.8515C109.194 36.3629 109.408 36.9052 109.723 37.559C109.914 37.9573 110.153 38.6166 110.202 39.4939C110.256 40.4967 110.739 41.441 111.56 42.1548L111.594 42.1839C112.291 42.802 112.672 43.7172 112.639 44.695C112.575 46.6181 111.73 50.0584 106.799 51.486Z" fill="#1A1A1A"/>
<path d="M108.348 44.1715L106.855 44.77C106.855 44.77 105.995 45.0933 104.86 45.5071C103.725 45.9208 102.614 46.0762 102.039 46.1237C101.465 46.1712 99.5072 46.032 99.5072 46.032L96.473 45.82C96.2941 45.8075 96.1156 45.7887 95.9381 45.764L95.9157 45.7607C95.6337 45.7213 95.4099 45.9959 95.5048 46.2647C95.6105 46.564 95.757 46.8445 95.9127 47.0926C96.3041 47.7177 96.8371 48.2438 97.4383 48.6708C98.718 49.5794 99.7079 49.9011 100.818 50.1478C101.133 50.2177 101.577 50.2163 102.008 50.1868C102.792 50.1334 103.569 49.9792 104.321 49.7484C104.768 49.6111 105.146 49.4822 105.463 49.3648C106.587 48.9495 107.575 48.2107 108.218 47.199C108.417 46.8846 108.561 46.5835 108.677 46.2816C108.857 45.8104 108.869 45.02 108.853 44.4995C108.845 44.2443 108.585 44.0768 108.348 44.1715ZM103.117 46.1403C103.277 46.1263 103.59 46.0872 103.902 45.9842C103.97 45.9617 104.042 46.011 104.045 46.081L104.065 46.5618C104.079 46.9005 103.959 47.2299 103.731 47.484C103.704 47.5134 103.657 47.5127 103.63 47.4829L103.227 47.0256C103.143 46.9295 103.089 46.8117 103.074 46.6869L103.02 46.2562C103.013 46.1977 103.056 46.1458 103.117 46.1403ZM98.5376 47.1648C98.4783 47.2049 98.4039 47.2156 98.3358 47.1935L98.1282 47.1269C97.8904 47.0503 97.7262 46.8327 97.7177 46.5831L97.7059 46.2382C97.7034 46.159 97.7696 46.0953 97.8488 46.1012L98.4614 46.1472C98.5162 46.1513 98.563 46.1892 98.5788 46.2419L98.7095 46.6836C98.7632 46.864 98.6937 47.0588 98.5376 47.1648ZM99.4292 47.6629L99.2297 47.4648C99.0423 47.2785 98.951 47.0164 98.9819 46.7539L99.0334 46.3173C99.0419 46.2448 99.1063 46.1918 99.1792 46.1969L99.8489 46.2452C99.9162 46.25 99.97 46.3037 99.9755 46.3711L99.9803 46.4333C100.004 46.7444 99.9313 47.0554 99.7712 47.3231L99.5794 47.6437C99.5474 47.6978 99.4734 47.707 99.4292 47.6629ZM100.4 49.4016L100.275 49.734C100.257 49.7826 100.201 49.8135 100.146 49.8032C99.9468 49.7657 99.7741 49.6943 99.6714 49.6457C99.6129 49.6177 99.5838 49.5573 99.603 49.5002C99.6788 49.2738 99.797 49.0611 99.9523 48.8715C100.044 48.7599 100.23 48.764 100.318 48.8796C100.435 49.0327 100.465 49.2264 100.4 49.4016ZM100.294 46.4101C100.275 46.3398 100.327 46.2706 100.393 46.2787C100.583 46.3019 100.941 46.3354 101.296 46.3151C101.349 46.3122 101.393 46.3549 101.392 46.4138C101.392 46.6601 101.39 47.252 101.39 47.252C101.39 47.4365 101.299 47.5182 101.201 47.4998L100.865 47.4361C100.67 47.3989 100.512 47.2432 100.457 47.0341L100.294 46.4101ZM101.309 49.9026C101.295 49.9737 101.23 50.0263 101.158 50.0226C100.907 50.0097 100.761 49.9589 100.683 49.9192C100.634 49.8945 100.606 49.843 100.606 49.7885V49.4678C100.606 49.3523 100.688 49.2529 100.801 49.2304L101.271 49.1365C101.366 49.1174 101.45 49.2017 101.431 49.297L101.309 49.9026ZM102.403 49.9335C102.251 49.9744 101.959 50.0363 101.68 50.0028C101.62 49.9958 101.579 49.9387 101.585 49.8791L101.645 49.2676C101.653 49.1785 101.712 49.1023 101.797 49.0714L102.008 48.9941C102.136 48.9469 102.278 49.0209 102.313 49.1538L102.482 49.7959C102.498 49.8559 102.463 49.9173 102.403 49.9335ZM102.571 47.1475L102.391 47.2546C102.283 47.3187 102.154 47.3411 102.029 47.3176C101.902 47.2933 101.803 47.1961 101.781 47.0727L101.666 46.4465C101.653 46.3737 101.711 46.3085 101.787 46.3074C102.097 46.303 102.375 46.2695 102.531 46.2466C102.602 46.2363 102.667 46.2875 102.672 46.3575L102.71 46.8861C102.717 46.9918 102.664 47.0923 102.571 47.1475ZM103.342 49.8253L102.859 49.9188C102.79 49.9324 102.722 49.8912 102.705 49.8227C102.66 49.6453 102.598 49.2886 102.684 48.877C102.705 48.778 102.806 48.7172 102.901 48.7522C103.124 48.8339 103.291 49.0217 103.347 49.2525L103.445 49.6652C103.463 49.7381 103.416 49.811 103.342 49.8253ZM104.293 49.5069C104.29 49.5404 104.268 49.5684 104.236 49.5783L103.768 49.72C103.72 49.7344 103.67 49.7027 103.663 49.653L103.616 49.3136C103.582 49.0721 103.693 48.8332 103.899 48.7036C103.996 48.6432 104.122 48.6675 104.189 48.7596L104.292 48.9013C104.322 48.9433 104.336 48.9944 104.332 49.046L104.293 49.5069ZM105.174 46.4123C105.127 46.607 105.002 46.7757 104.826 46.8809L104.737 46.9343C104.614 47.0076 104.453 46.9373 104.428 46.7992L104.295 46.0534C104.278 45.9584 104.335 45.8656 104.429 45.8343L105.04 45.633C105.191 45.5829 105.341 45.7139 105.305 45.8645L105.174 46.4123ZM106.037 46.2647C105.96 46.3181 105.855 46.3063 105.791 46.2367L105.649 46.0795C105.552 45.9727 105.493 45.8373 105.481 45.6937L105.471 45.5704C105.465 45.5052 105.505 45.4448 105.567 45.4239L106.051 45.2589C106.121 45.235 106.198 45.2692 106.227 45.3373L106.272 45.4415C106.399 45.7371 106.301 46.0814 106.037 46.2647Z" fill="#1A1A1A"/>
<path d="M97.6063 44.029C97.6873 43.9679 97.7035 43.8523 97.6423 43.7713C97.5812 43.6903 97.466 43.6745 97.3843 43.7349C96.7415 44.2193 95.9942 44.5061 95.6054 44.6335C95.0746 44.808 94.6402 45.1522 94.3832 45.6032C94.1123 46.0781 94.0541 46.6074 94.2109 47.1755C94.2334 47.2572 94.3074 47.3106 94.388 47.3106C94.4042 47.3106 94.4208 47.3084 94.437 47.304C94.5349 47.2767 94.5923 47.1755 94.5654 47.0776C94.4359 46.6071 94.4819 46.1723 94.7028 45.7854C94.9148 45.4136 95.2763 45.129 95.7203 44.9825C96.1308 44.8485 96.9208 44.5455 97.6063 44.029Z" fill="#1A1A1A"/>
<path d="M102.557 35.8328C102.663 36.0437 102.855 36.2009 103.083 36.2646C103.157 36.2852 103.233 36.2955 103.309 36.2955C103.466 36.2955 103.621 36.2517 103.756 36.1674C103.912 36.0702 104.044 35.9362 104.14 35.779L104.7 34.8613C104.86 34.598 105.138 34.4033 105.463 34.3267C105.795 34.2487 106.143 34.301 106.415 34.471C106.502 34.5252 106.615 34.499 106.668 34.4129C106.722 34.3267 106.696 34.2133 106.61 34.1592C106.255 33.9369 105.807 33.8673 105.378 33.9685C104.958 34.0679 104.596 34.3234 104.385 34.6698L103.826 35.5876C103.76 35.6958 103.668 35.7882 103.561 35.8556C103.446 35.927 103.312 35.9469 103.181 35.9101C103.051 35.8736 102.946 35.7875 102.885 35.6664L102.807 35.5129C102.762 35.4223 102.65 35.3862 102.56 35.4319C102.469 35.4779 102.433 35.5887 102.479 35.6793L102.557 35.8328Z" fill="#1A1A1A"/>
<path d="M96.241 35.6292C96.5473 35.3579 96.9217 35.1738 97.3229 35.0969C97.3627 35.0891 97.4036 35.0829 97.4452 35.0777C98.1789 34.9842 98.8713 35.229 99.3157 35.7518C99.5152 35.9892 99.8064 36.1243 100.116 36.1243C100.12 36.1243 100.124 36.1243 100.129 36.1243C100.443 36.1207 100.736 35.9782 100.933 35.733C100.996 35.6539 100.983 35.5379 100.904 35.4742C100.825 35.4113 100.709 35.4234 100.645 35.5026C100.518 35.6616 100.328 35.754 100.124 35.7562C99.926 35.775 99.7291 35.6708 99.5793 35.493C99.0716 34.8955 98.2591 34.6058 97.3991 34.7125C97.3502 34.7188 97.3016 34.7262 97.2541 34.7354C96.7873 34.8248 96.3525 35.0387 95.9969 35.3535C95.9207 35.4208 95.9137 35.5372 95.9811 35.6134C96.0488 35.6896 96.1651 35.6966 96.241 35.6292Z" fill="#1A1A1A"/>
<path d="M108.583 43.2069C108.176 43.1841 107.38 43.1006 106.633 42.7979C106.539 42.76 106.431 42.8053 106.393 42.8996C106.355 42.9938 106.401 43.1009 106.495 43.1392C107.291 43.4613 108.132 43.5501 108.562 43.5743C109.03 43.6009 109.452 43.7827 109.753 44.0872C110.066 44.4041 110.222 44.8124 110.219 45.3002C110.218 45.4018 110.3 45.485 110.402 45.4857C110.402 45.4857 110.403 45.4857 110.403 45.4857C110.504 45.4857 110.586 45.404 110.587 45.3031C110.592 44.7137 110.399 44.2179 110.014 43.8284C109.65 43.4591 109.142 43.2386 108.583 43.2069Z" fill="#1A1A1A"/>
<path d="M103.401 38.6707C103.401 39.8827 104.387 40.8682 105.599 40.8682C106.81 40.8682 107.796 39.8823 107.796 38.6707C107.796 37.4592 106.81 36.4733 105.599 36.4733C104.387 36.4733 103.401 37.4592 103.401 38.6707ZM107.428 38.6707C107.428 39.6794 106.607 40.5 105.599 40.5C104.59 40.5 103.769 39.6794 103.769 38.6707C103.769 37.662 104.59 36.8415 105.599 36.8415C106.607 36.8415 107.428 37.662 107.428 38.6707Z" fill="#1A1A1A"/>
<path d="M104.667 38.6707C104.667 39.185 105.084 39.6021 105.599 39.6021C106.113 39.6021 106.53 39.185 106.53 38.6707C106.53 38.1564 106.113 37.7393 105.599 37.7393C105.084 37.7393 104.667 38.1564 104.667 38.6707ZM105.409 39.2667C105.325 39.2667 105.258 39.199 105.258 39.1154C105.258 39.0319 105.325 38.9641 105.409 38.9641C105.492 38.9641 105.56 39.0319 105.56 39.1154C105.56 39.199 105.492 39.2667 105.409 39.2667ZM105.869 38.1104C105.988 38.1104 106.084 38.2069 106.084 38.3258C106.084 38.4447 105.988 38.5411 105.869 38.5411C105.75 38.5411 105.654 38.4447 105.654 38.3258C105.654 38.2069 105.75 38.1104 105.869 38.1104Z" fill="#1A1A1A"/>
<path d="M97.8679 40.8685C99.0798 40.8685 100.065 39.8827 100.065 38.6711C100.065 37.4596 99.0794 36.4737 97.8679 36.4737C96.6563 36.4737 95.6705 37.4596 95.6705 38.6711C95.6705 39.8827 96.656 40.8685 97.8679 40.8685ZM97.8679 36.8415C98.8766 36.8415 99.6972 37.662 99.6972 38.6707C99.6972 39.6794 98.8766 40.5 97.8679 40.5C96.8592 40.5 96.0386 39.6794 96.0386 38.6707C96.0386 37.662 96.8592 36.8415 97.8679 36.8415Z" fill="#1A1A1A"/>
<path d="M97.8679 39.6021C98.3822 39.6021 98.7993 39.185 98.7993 38.6707C98.7993 38.1564 98.3822 37.7393 97.8679 37.7393C97.3536 37.7393 96.9365 38.1564 96.9365 38.6707C96.9365 39.185 97.3536 39.6021 97.8679 39.6021ZM98.1381 38.1104C98.257 38.1104 98.3535 38.2069 98.3535 38.3258C98.3535 38.4447 98.257 38.5411 98.1381 38.5411C98.0192 38.5411 97.9228 38.4447 97.9228 38.3258C97.9228 38.2069 98.0192 38.1104 98.1381 38.1104ZM97.6779 38.9645C97.7615 38.9645 97.8292 39.0322 97.8292 39.1158C97.8292 39.1994 97.7615 39.2671 97.6779 39.2671C97.5944 39.2671 97.5266 39.1994 97.5266 39.1158C97.5266 39.0322 97.5947 38.9645 97.6779 38.9645Z" fill="#1A1A1A"/>
<defs>
<filter id="filter0_dd" x="0.78125" y="13.875" width="380.156" height="60.5938" filterUnits="userSpaceOnUse" color-interpolation-filters="sRGB">
<feFlood flood-opacity="0" result="BackgroundImageFix"/>
<feColorMatrix in="SourceAlpha" type="matrix" values="0 0 0 0 0 0 0 0 0 0 0 0 0 0 0 0 0 0 127 0"/>
<feOffset dx="3" dy="4"/>
<feGaussianBlur stdDeviation="2"/>
<feColorMatrix type="matrix" values="0 0 0 0 0 0 0 0 0 0 0 0 0 0 0 0 0 0 0.25 0"/>
<feBlend mode="normal" in2="BackgroundImageFix" result="effect1_dropShadow"/>
<feColorMatrix in="SourceAlpha" type="matrix" values="0 0 0 0 0 0 0 0 0 0 0 0 0 0 0 0 0 0 127 0"/>
<feOffset dx="4" dy="4"/>
<feGaussianBlur stdDeviation="2"/>
<feColorMatrix type="matrix" values="0 0 0 0 0 0 0 0 0 0 0 0 0 0 0 0 0 0 0.25 0"/>
<feBlend mode="normal" in2="effect1_dropShadow" result="effect2_dropShadow"/>
<feBlend mode="normal" in="SourceGraphic" in2="effect2_dropShadow" result="shape"/>
</filter>
<filter id="filter1_d" x="59" y="11" width="73.3333" height="73.3333" filterUnits="userSpaceOnUse" color-interpolation-filters="sRGB">
<feFlood flood-opacity="0" result="BackgroundImageFix"/>
<feColorMatrix in="SourceAlpha" type="matrix" values="0 0 0 0 0 0 0 0 0 0 0 0 0 0 0 0 0 0 127 0"/>
<feOffset dy="4"/>
<feGaussianBlur stdDeviation="2"/>
<feColorMatrix type="matrix" values="0 0 0 0 0 0 0 0 0 0 0 0 0 0 0 0 0 0 0.25 0"/>
<feBlend mode="normal" in2="BackgroundImageFix" result="effect1_dropShadow"/>
<feBlend mode="normal" in="SourceGraphic" in2="effect1_dropShadow" result="shape"/>
</filter>
</defs>
</svg>
